<svg width="62" height="70" viewBox="0 0 62 70" fill="none" xmlns="http://www.w3.org/2000/svg">
<path d="M60.1999 43.3004C61.1999 42.2004 61.8 40.8004 61.8 39.2004C61.8 35.8004 59 33.0004 55.5999 33.0004H43.7C44.9 29.4004 45.4 24.6004 45.4 22.6004V20.6004C45.4 16.1004 41.7 12.4004 37.2 12.4004H35.0999C34.1999 12.4004 33.2999 13.0004 33.0999 14.0004L32 18.5004C30.4 24.8004 25.5 31.7004 20.2999 32.9004C19.4 30.6004 17.2 29.0004 14.6 29.0004H2.29995C1.19995 29.0004 0.199951 29.9004 0.199951 31.1004V68.0004C0.199951 69.1004 1.09995 70.1004 2.29995 70.1004H14.6C17 70.1004 19.2 68.7004 20.2 66.6004L27.2 68.9004C29.5 69.7004 31.9 70.1004 34.2999 70.1004H51.5C54.9 70.1004 57.7 67.3004 57.7 63.9004C57.7 63.1004 57.5 62.3004 57.2999 61.6004C59.8999 60.9004 61.8 58.5004 61.8 55.7004C61.8 54.1004 61.1999 52.7004 60.1999 51.6004C61.1999 50.5004 61.8 49.1004 61.8 47.5004C61.8 45.9004 61.1999 44.4004 60.1999 43.3004ZM16.6 63.8004C16.6 64.9004 15.7 65.9004 14.5 65.9004H4.29995V33.1004H14.6C15.7 33.1004 16.7 34.0004 16.7 35.2004V63.8004H16.6ZM51.5 45.4004H55.5999C56.6999 45.4004 57.7 46.3004 57.7 47.5004C57.7 48.6004 56.7999 49.6004 55.5999 49.6004H51.5C50.4 49.6004 49.4 50.5004 49.4 51.7004C49.4 52.8004 50.2999 53.8004 51.5 53.8004H55.5999C56.6999 53.8004 57.7 54.7004 57.7 55.9004C57.7 57.0004 56.7999 58.0004 55.5999 58.0004H51.5C50.4 58.0004 49.4 58.9004 49.4 60.1004C49.4 61.3004 50.2999 62.2004 51.5 62.2004C52.5999 62.2004 53.5999 63.1004 53.5999 64.3004C53.5999 65.4004 52.7 66.4004 51.5 66.4004H34.2999C32.2999 66.4004 30.2999 66.1004 28.5 65.5004L20.7999 62.9004V37.0004C24 36.4004 27.2 34.4004 30 31.0004C32.7999 27.7004 35 23.4004 36 19.4004L36.7 16.5004H37.0999C39.3999 16.5004 41.2 18.3004 41.2 20.6004V22.6004C41.2 25.4004 40.2999 30.6004 39.2 33.0004H35C33.9 33.0004 32.9 33.9004 32.9 35.1004C32.9 36.3004 33.7999 37.2004 35 37.2004H55.5C56.5999 37.2004 57.5999 38.1004 57.5999 39.3004C57.5999 40.4004 56.7 41.4004 55.5 41.4004H51.4C50.3 41.4004 49.2999 42.3004 49.2999 43.5004C49.5 44.5004 50.4 45.4004 51.5 45.4004Z" fill="#441401"/>
<path d="M10.4999 61.7996C11.5999 61.7996 12.5999 60.8996 12.5999 59.6996C12.5999 58.5996 11.6999 57.5996 10.4999 57.5996C9.2999 57.5996 8.3999 58.4996 8.3999 59.6996C8.3999 60.8996 9.3999 61.7996 10.4999 61.7996Z" fill="#441401"/>
<path d="M39.2 0C38.1 0 37.1 0.9 37.1 2.1V6.3C37.1 7.4 38 8.4 39.2 8.4C40.3 8.4 41.3 7.5 41.3 6.3V2.1C41.3 0.9 40.3 0 39.2 0Z" fill="#FFB800"/>
<path d="M30.5 9L27.6 6.1C26.8 5.3 25.5 5.3 24.7 6.1C23.9 6.9 23.9 8.2 24.7 9L27.6 11.9C28.4 12.7 29.7 12.7 30.5 11.9C31.3 11.1 31.3 9.8 30.5 9Z" fill="#FFB800"/>
<path d="M53.6999 6.1C52.8999 5.3 51.5999 5.3 50.7999 6.1L47.8999 9C47.0999 9.8 47.0999 11.1 47.8999 11.9C48.6999 12.7 49.9999 12.7 50.7999 11.9L53.6999 9C54.4999 8.2 54.4999 6.9 53.6999 6.1Z" fill="#FFB800"/>
</svg>
