<svg width="70" height="70" viewBox="0 0 70 70" fill="none" xmlns="http://www.w3.org/2000/svg">
<path d="M62.5 55.7996C63.3 54.7996 63.7 53.4996 63.7 52.0996V43.8996C63.7 43.0996 63.1 42.4996 62.3 42.4996H56.2C53.4 42.4996 51.1 44.7996 51.1 47.5996V52.0996C51.1 53.4996 51.5 54.6996 52.3 55.7996C51.4 55.9996 50.5 56.2996 49.6 56.6996C47.7 53.8996 44.6 51.8996 41 51.5996C42.3 50.1996 43.1 48.2996 43.1 46.1996V34.9996C43.1 34.1996 42.5 33.5996 41.7 33.5996H33.4C29.8 33.5996 26.9 36.4996 26.9 40.0996V46.1996C26.9 48.2996 27.7 50.0996 29 51.5996C25.4 51.8996 22.3 53.8996 20.4 56.6996C19.6 56.2996 18.7 55.9996 17.7 55.7996C18.4 54.7996 18.9 53.4996 18.9 52.0996V43.8996C18.9 43.0996 18.3 42.4996 17.5 42.4996H11.4C8.6 42.4996 6.3 44.7996 6.3 47.5996V52.0996C6.3 53.4996 6.7 54.6996 7.5 55.7996C3.2 56.4996 0 60.1996 0 64.5996V68.6996C0 69.3996 0.6 69.9996 1.4 69.9996H68.7C69.5 69.9996 70.1 69.3996 70.1 68.5996V64.4996C70 60.1996 66.8 56.4996 62.5 55.7996ZM9 47.5996C9 46.2996 10.1 45.1996 11.4 45.1996H16.1V46.8996C16.1 47.6996 15.4 48.3996 14.6 48.3996H9V47.5996ZM9 51.0996H14.7C15.2 51.0996 15.7 50.9996 16.2 50.7996V51.9996C16.2 53.9996 14.6 55.5996 12.6 55.5996C10.6 55.5996 9 53.9996 9 51.9996V51.0996ZM13.5 58.3996L12.6 59.2996L11.7 58.3996H13.5ZM18.4 63.0996V67.1996H2.7V64.4996C2.7 61.3996 4.9 58.8996 7.9 58.3996L11.6 62.0996C11.9 62.3996 12.2 62.4996 12.6 62.4996C13 62.4996 13.3 62.3996 13.6 62.0996L17.3 58.3996C18 58.4996 18.6 58.6996 19.2 58.9996C18.6 60.3996 18.4 61.6996 18.4 63.0996ZM35 51.4996C32.1 51.4996 29.7 49.0996 29.7 46.1996V44.3996H37.9C38.8 44.3996 39.7 44.1996 40.4 43.7996V46.1996C40.3 49.0996 37.9 51.4996 35 51.4996ZM37.4 54.1996L35 56.5996L32.6 54.1996H37.4ZM29.7 40.0996C29.7 37.9996 31.4 36.3996 33.4 36.3996H40.3V39.1996C40.3 40.5996 39.2 41.6996 37.8 41.6996H29.6V40.0996H29.7ZM48.9 67.2996H46.2H23.8H21.1V64.5996H30C30.8 64.5996 31.4 63.9996 31.4 63.1996C31.4 62.3996 30.8 61.7996 30 61.7996H21.2C21.8 57.8996 24.9 54.7996 28.8 54.2996L34 59.4996C34.3 59.7996 34.6 59.8996 35 59.8996C35.4 59.8996 35.7 59.7996 36 59.4996L41.2 54.2996C45.5 54.8996 48.9 58.5996 48.9 63.0996V67.2996ZM53.9 47.5996C53.9 46.2996 55 45.1996 56.3 45.1996H61V46.8996C61 47.6996 60.3 48.3996 59.5 48.3996H53.8V47.5996H53.9ZM53.9 51.0996H59.6C60.1 51.0996 60.6 50.9996 61.1 50.7996V51.9996C61.1 53.9996 59.5 55.5996 57.5 55.5996C55.5 55.5996 53.9 53.9996 53.9 51.9996V51.0996ZM58.3 58.3996L57.4 59.2996L56.5 58.3996H58.3ZM51.6 67.2996V63.1996C51.6 61.7996 51.3 60.3996 50.9 59.1996C51.5 58.8996 52.1 58.6996 52.8 58.5996L56.5 62.2996C56.8 62.5996 57.1 62.6996 57.5 62.6996C57.9 62.6996 58.2 62.5996 58.5 62.2996L62.2 58.5996C65.1 59.0996 67.4 61.5996 67.4 64.6996V67.3996H51.6V67.2996Z" fill="#441401"/>
<path d="M41.7001 8.90039C41.2001 8.40039 40.3 8.40039 39.8 8.90039L33.1 15.6004L30.2001 12.7004C29.7001 12.2004 28.8 12.2004 28.3 12.7004C27.8 13.2004 27.8 14.1004 28.3 14.6004L32.2001 18.5004C32.5001 18.8004 32.8001 18.9004 33.2001 18.9004C33.6001 18.9004 33.9001 18.8004 34.2001 18.5004L41.9001 10.8004C42.3001 10.3004 42.3001 9.50039 41.7001 8.90039Z" fill="#FFB800"/>
<path d="M40.6 1.19982C39.9 0.899823 39.1 1.19982 38.8 1.89982C38.5 2.59982 38.8 3.39982 39.5 3.69982C43.5 5.49982 46 9.39982 46 13.7998C46 19.8998 41.1 24.7998 35 24.7998C28.9 24.7998 24 19.8998 24 13.7998C24 9.49982 26.5 5.49982 30.5 3.79982C31.2 3.49982 31.5001 2.69982 31.2001 1.99982C30.9001 1.29982 30.1 0.999823 29.4 1.29982C24.5 3.49982 21.3 8.39982 21.3 13.7998C21.3 21.3998 27.5 27.4998 35 27.4998C42.6 27.4998 48.7001 21.2998 48.7001 13.7998C48.7001 8.29982 45.5 3.39982 40.6 1.19982Z" fill="#FFB800"/>
<path d="M35 0C34.2 0 33.6 0.6 33.6 1.4C33.6 2.2 34.2 2.8 35 2.8C35.8 2.8 36.4 2.2 36.4 1.4C36.4 0.6 35.8 0 35 0Z" fill="#441401"/>
<path d="M36 62.1998C35.7 61.8998 35.4 61.7998 35 61.7998C34.6 61.7998 34.3 61.8998 34 62.1998C33.7 62.4998 33.6 62.7998 33.6 63.1998C33.6 63.5998 33.7 63.8998 34 64.1998C34.3 64.4998 34.6 64.5998 35 64.5998C35.4 64.5998 35.7 64.4998 36 64.1998C36.3 63.8998 36.4 63.5998 36.4 63.1998C36.4 62.7998 36.2 62.4998 36 62.1998Z" fill="#441401"/>
</svg>
