<svg width="250" height="227" viewBox="0 0 250 227" fill="none" xmlns="http://www.w3.org/2000/svg">
<path d="M33.1381 78.2855C33.3067 77.9825 33.4541 77.6794 33.6859 77.2899C33.2645 77.3115 32.9275 77.3331 32.464 77.3764C32.6747 76.9436 32.8221 76.6405 32.9485 76.4025C33.4963 76.0129 34.2968 76.3808 34.6339 75.6449C34.5496 75.1471 34.0229 75.4069 33.8333 75.1471C33.6648 74.909 33.5595 74.6277 33.3909 74.2814C33.7069 74.1299 34.044 73.8485 34.3811 73.8485C34.9077 73.8485 35.308 73.5455 35.7083 73.3074C36.5299 72.8096 37.2883 72.1819 38.131 71.5759C38.0046 71.2729 37.8782 70.9699 37.7518 70.6669C38.1099 70.4937 38.4891 70.2989 38.8683 70.1041C38.9947 70.0392 39.1422 69.8877 39.2475 69.9093C40.3009 70.0825 40.659 69.3249 41.0803 68.5891C41.2067 68.3726 41.3542 68.1778 41.3963 68.1129C42.7025 67.3986 43.9875 67.8099 45.2094 67.6151C45.4201 67.5718 45.6518 67.7233 45.8836 67.8099C46.8526 68.1778 47.7796 68.0263 48.6223 67.4419C49.5071 66.8359 50.434 66.3597 51.5505 66.2732C52.1615 66.2299 52.7724 65.9918 53.1938 65.4291C53.4676 65.494 53.6994 65.5373 53.9311 65.5806C54.4999 64.6066 55.2794 63.9356 56.3748 63.6759C56.9436 63.5461 57.4914 63.3296 58.0602 63.2214C59.261 62.9617 60.3143 62.334 61.3887 61.7929C62.9266 60.9921 64.4645 60.148 66.0445 59.4121C67.0347 58.9576 67.9405 58.2433 68.8885 57.6806C70.0051 57.0096 71.1848 56.4253 72.4699 56.1872L72.4278 56.1439C72.4278 56.7716 71.9011 56.988 71.5219 57.2261C70.3632 57.9403 69.1624 58.568 67.9827 59.2389C67.4349 59.542 66.9293 59.9099 66.4027 60.2778C65.6021 60.8839 64.6541 61.2951 63.7272 61.728C62.2104 62.4206 60.8621 63.3729 59.4927 64.3036C59.3663 64.3902 59.3031 64.52 59.1978 64.6282C59.1978 64.9745 59.4085 65.1044 59.6613 65.0611C60.2301 64.9962 60.8199 65.1477 61.3256 64.7581C61.3677 64.7365 61.4098 64.6932 61.452 64.6932C62.6528 64.7365 63.4744 63.8924 64.4645 63.3946C65.9392 62.6587 67.3928 61.9011 68.72 60.8839C68.9096 60.7324 69.1413 60.6458 69.3731 60.5592C70.8688 60.0181 72.0064 58.9359 73.1862 57.9187C73.6707 57.5074 74.092 57.0313 74.5766 56.6417C75.2507 56.1439 75.5878 55.4729 75.7142 54.6505L75.6931 54.6937C75.9249 54.7154 76.1566 54.7587 76.3673 54.7154C76.6833 54.6721 76.8518 54.4773 76.8518 54.1527C76.8518 53.7414 76.5569 53.7631 76.2619 53.7631L76.2409 53.7847C76.4094 53.6116 76.5569 53.3951 76.7465 53.2653C77.8841 52.5294 78.9163 51.5987 80.2014 51.1442C81.1705 50.8195 81.8868 49.997 82.919 49.7806C83.0454 49.759 83.1297 49.5858 83.235 49.4776C83.8249 48.7417 84.5623 48.3521 85.5524 48.3738C85.9737 47.1617 87.1745 47.3349 87.9961 46.8371C88.2911 47.0751 88.1015 47.205 87.9751 47.3565C87.9329 47.3998 87.8908 47.4214 87.8697 47.4431C87.1745 48.7634 85.9737 49.456 84.7308 50.1053C84.478 50.2351 84.3095 50.4949 84.0777 50.6896C83.7407 50.9494 83.4457 51.2524 83.0033 51.4255C82.582 51.577 82.2449 52.0099 81.9078 52.3346C81.5918 52.6376 81.2758 52.9406 81.318 53.5466C81.4444 53.6116 81.6129 53.7198 81.7814 53.7198C82.6452 53.7198 83.4036 53.3518 84.0145 52.7674C85.0889 51.7502 86.3951 51.0792 87.5327 50.1486C88.2911 49.5425 89.1548 49.088 90.0186 48.6768C90.0396 48.7634 90.0396 48.9149 90.1028 48.9365C90.2082 48.9798 90.3346 48.9798 90.461 48.9798L90.482 48.8716C90.4188 48.8066 90.3556 48.7634 90.2714 48.7417C90.1871 48.7201 90.0818 48.7417 89.9975 48.7417C90.166 48.5686 90.3135 48.3088 90.5031 48.2655C91.3668 48.0491 91.9356 47.4431 92.378 46.7288C92.7362 46.1445 93.1997 45.7332 93.7474 45.3436C94.1687 45.0406 94.5479 44.6727 94.9271 44.3047C95.0114 44.2182 95.0114 44.045 95.0746 43.7853C94.8429 43.7853 94.6533 43.742 94.5058 43.7853C93.7053 44.1316 92.9047 44.4779 92.1463 44.8458C91.8514 44.9973 91.6196 45.2571 91.3668 45.4735C90.6927 46.0362 89.9554 46.4908 89.1127 46.7505C89.0495 46.7721 88.9442 46.6855 88.8599 46.6423C89.0284 45.9497 89.85 45.928 90.145 45.3436L90.1028 45.3653C90.2714 45.2354 90.6295 45.0406 90.6084 44.954C90.4399 44.3697 90.798 44.0234 91.1983 43.9151C92.1884 43.6771 92.8837 43.0061 93.6421 42.4434C93.9159 42.2486 94.2319 42.1187 94.5269 41.9239C94.6743 41.8157 94.8639 41.7075 94.9693 41.556C95.6013 40.6253 96.4439 40.0409 97.4762 39.673C97.9608 39.4998 98.361 39.1102 98.7824 38.7856C99.0562 38.5691 99.2248 38.7206 99.4144 38.8505L99.3301 38.8938L99.3933 38.8289C99.6882 38.7423 99.9621 38.6341 100.257 38.5475L100.236 38.5042C99.8778 38.8938 99.5408 39.2834 99.2037 39.6513C99.5197 40.3439 99.7304 40.4954 100.131 40.279C100.678 39.976 101.205 39.6297 101.732 39.2617C102.111 38.9804 102.427 38.5475 102.954 38.5042C103.038 38.5042 103.143 38.4393 103.206 38.3743C103.817 37.6384 104.513 37.0541 105.355 36.6428C105.713 35.7987 106.472 35.8204 107.167 35.7771C107.335 35.236 106.935 35.3009 106.703 35.2143L106.746 35.236C107.293 34.8464 107.841 34.4568 108.41 34.0889C108.768 33.8508 109.168 33.6343 109.632 33.8075C109.885 33.8941 110.095 33.8508 110.264 33.6127C110.538 33.2231 111.022 33.0283 111.233 32.5522C111.359 32.2708 111.696 32.2059 111.991 32.3141L111.97 32.2708C111.865 32.4223 111.717 32.5738 111.633 32.747C111.317 33.3313 111.507 33.7859 112.033 34.1971C112.75 33.6127 113.487 33.0933 114.161 32.4872C115.004 31.708 115.91 31.3185 117.047 31.6431C117.49 31.773 117.806 31.5782 118.016 31.2102C118.101 31.0587 118.037 30.8423 118.059 30.6691C117.848 30.6475 117.7 30.6259 117.553 30.6259C117.553 30.5393 117.511 30.4311 117.553 30.3878C117.785 30.193 118.016 30.0415 118.248 29.8683C118.606 29.6086 118.985 29.3922 119.301 29.1324C119.828 28.6996 120.334 28.31 120.987 28.0935C121.556 27.9204 122.124 27.6607 122.672 27.4009C123.199 27.1412 123.536 26.5135 124.02 26.1023C124.379 25.7993 124.821 25.5396 125.242 25.3448C126.022 25.0201 126.696 24.5872 127.223 23.9163C127.981 24.7171 128.339 24.6955 128.908 23.8297C128.971 23.7215 129.076 23.6349 129.161 23.5267L129.14 23.5051C129.182 23.57 129.224 23.6566 129.266 23.7215C129.329 23.6566 129.414 23.57 129.477 23.5051L129.456 23.5267C129.856 23.1804 130.277 22.8341 130.699 22.5311C131.267 22.0982 131.963 22.2064 132.616 22.1199C132.742 22.0982 132.953 22.3146 133.058 22.4445C133.29 22.7692 133.479 23.1155 133.69 23.4401C133.543 23.8946 133.374 24.3492 133.269 24.8253C133.206 25.1283 133.5 25.4097 133.816 25.3448C133.964 25.3231 134.111 25.3015 134.217 25.2149C134.807 24.782 135.439 24.3925 135.923 23.873C136.45 23.3103 136.955 23.0072 137.672 23.2886C138.472 22.6609 139.146 21.9034 140.137 21.687C141.063 20.8212 142.306 20.3667 143.086 19.3278L143.044 19.3062C143.128 19.5226 143.17 19.804 143.339 19.9122C143.549 20.0853 143.844 20.1503 144.097 20.2585C144.729 19.9771 145.319 19.6957 146.014 19.3927C146.12 19.5875 146.225 19.7823 146.372 19.9555C146.625 20.2801 146.92 20.3451 147.257 20.1719C147.636 19.9771 147.931 19.5875 148.416 19.6741L148.395 19.6308C147.742 20.5831 146.815 21.1026 145.782 21.384C144.771 21.6653 143.929 22.2064 143.065 22.7692C142.791 22.9423 142.433 23.2237 142.391 23.5051C142.264 24.2626 141.738 24.5223 141.169 24.8253C140.242 25.3231 139.505 25.9941 139.273 27.1196C139.189 27.5308 139.399 27.7689 139.821 27.704C140.389 27.6174 140.937 27.5308 141.59 27.4226C141.78 27.1629 142.011 26.8382 142.243 26.5135C142.959 25.4314 144.034 25.0634 145.214 24.9552C145.509 24.9335 145.804 25.0201 145.993 24.7388C146.162 24.5007 146.288 24.2409 146.393 23.9812C146.457 23.8514 146.457 23.7215 146.478 23.5916C146.625 23.57 146.73 23.5267 146.815 23.57C147.742 24.0462 148.374 23.5483 148.942 22.8557C149.09 22.6609 149.216 22.4445 149.343 22.2281C149.448 22.0766 149.532 21.8385 149.701 21.7736C150.86 21.2974 151.07 19.8905 152.06 19.2412C152.145 19.1763 152.145 18.83 152.06 18.7434C151.955 18.6352 151.702 18.6136 151.555 18.6785C151.091 18.8516 150.733 19.1763 150.459 19.6092C150.312 19.8473 150.101 20.0421 149.869 20.3018C149.448 19.9338 149.09 19.6308 148.732 19.3062L148.774 19.3278C149.659 18.7434 150.649 18.3105 151.365 17.4664C151.555 17.25 151.871 17.1851 152.124 17.0336C152.734 16.644 153.367 16.2544 153.977 15.8648C154.357 15.6267 154.652 15.1289 155.241 15.367C155.347 15.4103 155.6 15.2155 155.684 15.064C155.937 14.5878 156.126 14.09 156.358 13.5706C156.653 13.4623 157.074 13.4407 157.243 13.2026C157.559 12.7914 157.727 12.2719 157.959 11.8174C158.317 11.7092 158.717 11.601 159.097 11.4928C159.139 11.904 159.265 12.3585 159.181 12.7697C159.012 13.7221 159.455 14.393 159.981 15.0423C160.445 15.6051 160.887 16.1895 161.33 16.7306C161.793 16.7955 162.088 16.6223 162.341 16.276C162.783 15.6267 163.268 15.0207 163.731 14.4147C164.384 14.5012 164.3 15.2155 164.806 15.5185C165.227 15.5185 165.754 15.5185 166.344 15.5185C166.66 16.341 166.976 17.0769 166.323 17.8777C166.196 18.0292 166.238 18.3322 166.196 18.5703C166.807 18.8949 167.397 18.7218 167.945 18.7651L167.924 18.7434C168.134 18.9599 168.408 19.133 168.535 19.3711C169.04 20.3884 169.925 20.4316 170.768 20.1719C171.484 19.9555 172.179 19.8905 172.917 19.9338C173.443 19.9555 173.865 19.804 174.223 19.436C174.791 18.83 175.423 18.3105 175.739 17.4664C176.013 16.7306 176.687 16.2544 177.235 15.7782C178.394 15.7566 178.752 16.7955 179.51 17.3799C179.131 17.7045 178.752 18.0075 178.394 18.3105C178.373 18.7434 178.499 19.1979 178.057 19.5226C177.783 19.7174 177.846 20.0637 178.015 20.3234C178.204 20.6481 178.478 20.8212 178.857 20.7563C179.194 20.6914 179.532 20.6264 179.848 20.5615C180.627 20.41 181.175 19.9555 181.449 19.1979C181.596 18.8084 181.786 18.5486 182.06 18.2456C182.397 17.8777 182.565 17.3149 182.818 16.7955C183.239 16.6656 183.703 16.5141 184.229 16.341C184.314 15.4319 184.819 14.8475 185.725 14.6311C186.062 14.5445 186.357 14.4147 186.694 14.3064C187.748 13.9385 187.958 13.6571 188.127 12.4018C187.663 12.0771 187.2 11.7308 186.715 11.3845C186.863 10.7569 186.989 10.1941 187.116 9.60975C186.757 9.15523 186.252 8.96043 185.767 8.76564C185.283 8.57085 184.798 8.31112 184.272 8.18126C183.724 8.02975 183.155 7.96482 182.481 7.83496C182.354 7.72674 182.165 7.5103 181.933 7.33715C181.701 7.164 181.449 7.03414 181.196 6.88263C181.154 6.44975 181.112 6.06017 181.09 5.67058L181.069 5.71387C181.891 5.584 182.713 5.51907 183.387 6.19003C183.492 6.2766 183.682 6.36318 183.787 6.31989C184.461 6.1251 184.84 6.49304 185.262 6.96921C185.451 7.20729 185.852 7.29386 186.168 7.33715C186.779 7.44537 187.411 7.46701 188.043 7.53194C188.232 7.55359 188.443 7.57523 188.611 7.5103C189.222 7.25057 189.854 7.44537 190.486 7.40208C190.929 7.38044 191.203 7.64016 191.497 7.94318C191.455 8.31112 191.287 8.72235 191.392 9.04701C191.476 9.32838 191.856 9.50153 192.087 9.73961C192.151 9.99933 191.919 10.0643 191.771 10.1725C191.013 10.6054 190.929 10.8218 191.308 11.3629C191.603 11.7741 191.687 12.1421 191.624 12.6182C191.54 13.3974 191.455 14.1766 191.371 15.0207C191.645 15.3237 192.129 15.5401 192.235 16.1029C192.277 16.2977 192.509 16.579 192.698 16.6223C193.33 16.7738 193.709 17.1851 194.004 17.7262C194.152 17.9859 194.341 18.0941 194.594 18.0292C194.931 17.9426 195.016 17.6179 194.995 17.3149C194.973 17.0119 194.889 16.7306 194.847 16.4275C194.805 16.1895 194.763 15.9514 194.721 15.67C195.69 15.2804 196.469 15.6051 197.186 16.1678C197.565 16.4492 197.902 16.8171 198.281 17.1851C198.365 17.921 198.365 17.921 199.124 18.6136C200.367 17.9426 201.652 17.2716 203 16.5574C203.232 16.6223 203.548 16.7306 203.885 16.7955C204.664 16.9686 204.854 16.8821 205.254 16.1029C205.338 15.9297 205.423 15.7566 205.528 15.5401C206.223 15.4536 207.024 15.5618 207.34 14.3714C207.529 14.8475 207.635 14.9774 207.614 15.0856C207.403 16.0379 207.34 17.0552 206.834 17.921C206.708 18.1374 206.645 18.3755 206.539 18.5919C206.013 19.6092 206.202 20.6481 206.476 21.6437C206.581 22.0549 206.918 22.4012 207.192 22.8125C206.961 23.7864 206.455 24.7171 205.97 25.6045C205.57 26.3404 205.17 27.0113 204.938 27.8555C204.727 28.6346 204.432 29.4355 203.885 30.1281C203.653 30.4311 203.442 30.8207 203.4 31.1886C203.295 32.0976 203.779 32.8985 203.885 33.7859C203.948 34.3269 204.39 34.7382 204.875 35.0196C204.959 35.0628 205.001 35.1711 205.064 35.236C205.38 36.2749 204.959 37.2705 204.875 38.2661C204.833 38.7639 204.496 39.1535 204.011 39.3699C203.527 39.5864 203.063 39.8678 202.6 40.1491C201.567 40.7551 200.914 41.6209 200.872 42.8979C200.872 43.0494 200.809 43.1793 200.809 43.3308C200.809 43.3741 200.83 43.4173 200.872 43.5688C201.23 43.8502 201.631 44.1532 202.115 44.5212C201.715 45.0839 201.336 45.6034 200.999 46.0579C200.978 46.7938 201.588 46.7938 201.947 47.0968C201.883 47.2266 201.841 47.3782 201.778 47.508L201.799 47.3781V47.4647C201.588 47.7894 201.251 47.7028 200.935 47.7244L200.956 47.7461C200.851 47.7461 200.725 47.7461 200.619 47.7461L200.662 47.7028C200.662 47.811 200.662 47.9409 200.662 48.0491L200.64 48.0275C200.514 48.5902 199.84 48.5469 199.629 49.0447C199.65 49.3477 199.65 49.7806 200.03 49.8672C200.598 49.997 201.188 49.9538 201.673 49.5425C201.82 49.4127 201.947 49.2395 202.01 49.0664C202.368 48.1573 203 47.4214 203.484 46.599C203.906 45.8847 204.475 45.4302 205.107 44.9757C205.549 44.6727 206.013 44.6943 206.455 45.019L206.518 45.0623L206.413 45.0406C206.539 44.9757 206.645 44.9108 206.771 44.8458C206.855 44.9324 206.961 45.019 206.961 45.0623C206.771 46.0579 207.298 46.8587 207.656 47.6812L207.698 47.6595C207.593 47.7677 207.466 47.8976 207.361 48.0058L207.382 47.9842C206.876 48.2439 207.255 48.6551 207.213 49.0231C206.855 49.2179 206.371 49.3044 206.244 49.8023C206.16 49.8455 206.076 49.9105 205.991 49.9538C206.034 49.9538 206.097 49.997 206.097 49.9754C206.139 49.9105 206.181 49.8239 206.202 49.759C206.371 49.8455 206.518 49.9321 206.729 50.0403C206.518 50.3001 206.35 50.5381 206.181 50.7329C205.949 50.9927 205.907 51.2524 205.907 51.6203C205.907 52.0532 205.844 52.6159 205.359 52.9406C205.128 53.1138 205.022 53.4817 204.896 53.6765C205.191 54.131 205.402 54.499 205.633 54.8669C205.549 54.8885 205.317 54.8236 205.507 55.0617C205.549 54.9968 205.57 54.9102 205.612 54.8453C205.739 54.8885 205.886 54.9318 205.991 54.9968C206.286 55.1699 206.497 55.1266 206.602 54.7587C206.623 54.6937 206.729 54.6505 206.792 54.6072L206.75 54.5855C206.666 54.8669 206.623 55.1699 206.476 55.408C206.35 55.6677 206.118 55.8625 205.97 56.0789C206.434 56.9663 206.476 56.988 206.034 57.6806C205.739 58.1135 205.76 58.6978 205.317 59.0874C205.107 59.2822 205.465 59.8883 205.781 59.8233C206.307 59.7151 206.729 59.8017 207.15 60.1047C207.15 60.4077 207.15 60.7107 207.15 61.057C207.003 61.057 206.855 61.1003 206.729 61.057C206.265 60.8839 205.802 60.7107 205.444 61.2735C205.507 61.425 205.591 61.5981 205.697 61.8362C205.212 62.031 204.749 62.2258 204.306 62.4206C204.39 63.005 204.727 63.308 205.043 63.611L205.022 63.5893C205.043 63.914 205.043 64.2387 205.107 64.5633C205.149 64.8014 204.959 64.7798 204.854 64.8447C204.159 65.3858 204.053 66.165 203.99 66.9658C203.969 67.3337 204.559 67.7017 204.854 67.4636C205.57 66.8792 206.455 66.7926 207.277 66.5329C207.782 66.2082 207.761 65.2776 208.667 65.2992C208.709 66.1866 208.414 66.8792 207.614 67.2904C207.909 68.0696 209.046 67.5069 209.194 68.4376C208.583 68.654 208.014 68.6973 207.445 68.286C207.234 68.1345 206.876 68.048 206.708 68.4808C206.918 68.7406 207.108 69.0003 207.34 69.2384C207.466 69.3899 207.635 69.6063 207.782 69.5847C208.899 69.5414 209.531 70.5803 210.521 70.8184C210.774 70.8833 210.858 71.3378 210.647 71.4244C210.184 71.5975 210.015 71.9438 209.91 72.42C209.847 72.723 209.594 73.0044 209.404 73.3507C210.563 74.0433 211.679 74.5627 212.965 74.606C213.196 74.606 213.47 74.5844 213.66 74.4545C214.313 73.9567 215.05 73.6104 215.809 73.2858C216.061 73.1775 216.293 72.9827 216.483 72.7663C217.136 72.0954 217.705 72.0737 218.294 72.723C218.589 73.0477 218.884 73.3507 219.264 73.7619C219.221 74.0433 219.158 74.4329 219.095 74.909C219.285 75.0173 219.537 75.1471 219.811 75.3203C221.349 73.4806 222.866 71.6841 224.383 69.866C224.804 70.3206 225.162 70.6885 225.563 71.0997C226.068 70.6885 226.511 70.3206 226.911 69.9959C227.079 70.0392 227.206 70.0175 227.248 70.0825C227.585 70.4288 227.88 70.8184 228.217 71.143C228.575 71.4893 229.123 71.143 229.565 71.511C229.839 71.7491 230.387 71.6192 230.892 71.6625C231.019 72.1386 230.892 72.6148 230.85 73.091C230.808 73.5238 230.64 73.9567 230.619 74.4112C230.597 75.2337 230.471 75.9912 229.776 76.5323C229.165 78.1556 227.859 79.2594 226.89 80.6014C226.7 80.8611 226.553 81.0559 226.574 81.3805C226.616 82.203 226.447 82.9605 225.836 83.5666C225.773 83.6315 225.731 83.7397 225.689 83.8263C225.31 84.5622 225.478 85.0816 226.216 85.3846C226.447 85.4712 226.679 85.4929 226.932 85.5578L226.911 85.5145C226.848 85.6444 226.7 85.8175 226.742 85.9041C226.995 86.5318 226.932 87.1594 226.637 87.7005C227.143 88.3931 227.585 89.0208 228.069 89.6701C228.723 89.6701 229.376 89.6052 230.092 90.1463C230.134 90.2545 230.113 90.5575 229.818 90.8389C229.523 91.0986 229.27 91.4016 228.996 91.683C228.617 92.0509 228.47 92.5054 228.428 93.0682C228.68 93.2413 228.933 93.4361 229.207 93.6309C228.996 94.0205 228.87 94.2802 228.744 94.54C228.849 94.9728 229.628 95.6654 230.008 95.6438C230.134 95.6438 230.324 95.6005 230.408 95.4923C230.913 94.7564 231.567 94.9512 232.241 95.1243C232.746 95.2542 233.252 95.449 233.736 95.6005C234.031 95.4057 234.326 95.2109 234.579 95.0594C235.169 95.2109 235.401 95.6221 235.611 96.0334C235.611 96.5312 235.19 96.5528 234.958 96.7909C234.368 97.3753 233.821 98.003 232.936 98.1112C232.725 98.1328 232.536 98.3709 232.346 98.5441C231.946 98.912 231.545 99.2583 231.187 99.6695C230.913 99.9942 230.703 100.362 230.534 100.6C230.513 101.206 231.482 101.011 230.998 101.639C231.187 101.704 231.272 101.769 231.356 101.747C231.988 101.661 232.515 101.466 233.062 101.076C234.031 100.384 235.043 99.7345 236.307 99.5397C237.613 99.3449 238.708 98.5657 239.783 97.7865C240.183 97.4835 240.583 97.332 241.089 97.2238C241.615 97.0939 242.226 97.1156 242.711 96.726C243.027 96.4662 243.427 96.4663 243.827 96.5961L243.806 96.5745C243.764 96.726 243.659 96.9424 243.701 96.9857C244.312 97.6783 244.607 98.6306 245.513 99.1934C246.082 99.1717 246.714 99.1501 247.03 98.4358C247.325 97.7432 247.156 97.332 246.334 96.5095C246.671 96.2498 247.009 96.1632 247.367 96.423C247.598 96.5961 247.83 96.7693 248.062 96.9641C248.294 97.1589 248.504 97.3536 248.694 97.5051C248.694 98.003 248.715 98.3926 248.694 98.8038C248.673 99.2799 248.799 99.6912 249.031 100.081C249.157 100.297 249.326 100.492 249.41 100.708C249.789 101.617 250.126 102.483 250 103.544C249.831 105.037 249.6 106.466 249.136 107.916C248.694 109.323 248.525 110.816 248.188 112.266C248.02 112.937 247.767 113.586 247.493 114.214C246.966 115.534 246.377 116.855 245.85 118.175C245.344 119.474 244.691 120.686 244.08 121.919C243.259 123.629 241.995 124.993 241.005 126.573C240.33 127.655 239.635 128.737 239.024 129.841C238.308 131.161 237.381 132.33 236.391 133.391C235.443 134.408 234.748 135.577 234.074 136.789C234.01 136.918 233.947 137.07 233.926 137.2C233.673 138.434 233.673 138.434 233.041 139.321C233.104 139.494 233.147 139.667 233.231 139.862C233.442 140.317 233.378 140.728 233.062 141.117C232.662 141.615 232.325 142.156 232.093 142.762C231.946 143.152 231.84 143.455 232.051 143.888C232.241 144.256 232.135 144.667 231.861 145.013C231.503 145.468 231.166 145.966 230.745 146.377C229.839 147.264 228.933 148.173 227.732 148.649C227.606 148.714 227.48 148.844 227.353 148.866C226.426 148.974 225.836 149.645 225.162 150.229C224.488 150.814 223.772 151.312 223.098 151.874C222.129 152.675 221.075 153.389 220.296 154.428C219.285 154.775 218.8 155.792 217.978 156.398C217.22 156.961 216.588 157.718 215.914 158.432C214.861 159.536 213.849 160.662 212.775 161.744C211.848 162.675 210.795 163.475 210.078 164.601C209.783 165.055 209.194 165.12 209.004 165.748C208.878 166.224 208.393 166.614 208.035 167.025C207.698 167.436 207.319 167.826 206.961 168.237C206.771 168.453 206.581 168.692 206.35 168.865C205.338 169.644 204.685 170.769 203.716 171.613C203.674 171.635 203.632 171.678 203.611 171.722C202.22 174.124 199.903 175.574 197.965 177.436C196.743 178.626 195.374 179.665 194.068 180.79C193.773 181.44 192.972 181.461 192.614 182.132C192.319 182.695 191.603 183.02 191.076 183.453C190.549 183.885 190.086 184.405 189.538 184.795C189.033 185.141 188.696 185.617 188.422 186.136C187.853 187.197 187.031 188.019 186.125 188.799C184.946 189.816 183.808 190.898 182.586 191.785C182.67 192.651 182.376 193.365 181.807 193.842C180.501 194.945 179.321 196.201 178.015 197.283C177.909 197.37 177.783 197.456 177.657 197.543L177.614 197.478L177.678 197.521C176.35 198.56 175.023 199.621 173.696 200.659C172.622 201.504 171.547 202.326 170.473 203.148C170.03 203.127 170.094 203.668 169.778 203.776L169.799 203.819C169.693 203.625 169.567 203.581 169.44 203.819L169.462 203.776C169.462 203.906 169.462 204.036 169.483 204.144L169.44 204.122C167.924 205.356 166.407 206.59 164.911 207.824C163.057 209.339 161.351 211.027 159.286 212.26C158.802 212.542 158.465 213.083 158.022 213.473C157.664 213.797 157.285 214.1 156.885 214.382C156.358 214.75 155.768 215.009 155.284 215.399C153.956 216.503 152.545 217.433 151.133 218.407C149.806 219.316 148.563 220.334 147.257 221.264C146.393 221.892 145.488 222.476 144.561 223.017C144.097 223.277 143.549 223.364 143.086 223.58C142.833 223.688 142.496 223.905 142.433 224.121C142.285 224.749 141.759 224.792 141.358 225.03C140.558 225.507 140.431 225.42 140.094 224.316C140.389 223.97 140.684 223.602 141 223.234C141.506 222.65 142.075 222.26 142.917 222.39C143.17 222.433 143.528 222.347 143.739 222.195C144.687 221.437 145.593 220.615 146.52 219.814C146.562 219.793 146.583 219.728 146.625 219.641C146.583 219.295 146.562 218.927 146.52 218.516C146.414 218.516 146.246 218.451 146.141 218.494C144.561 219.316 142.96 220.16 141.379 221.005C140.326 221.567 139.189 221.979 138.135 222.541C137.314 222.974 136.513 223.429 135.691 223.84C135.354 224.013 134.975 224.078 134.617 224.186C134.575 224.013 134.575 223.905 134.554 223.818C134.512 223.623 134.512 223.364 134.385 223.277C134.217 223.147 133.943 223.061 133.711 223.061C133.5 223.082 133.269 223.234 133.058 223.342C132.089 223.818 131.099 224.208 129.919 223.84C129.835 224.143 129.73 224.424 129.645 224.749C128.15 225.442 126.633 226.156 125.074 226.827C124.779 226.957 124.421 227 124.084 226.978C123.704 226.935 123.346 226.719 122.988 226.697C122.672 226.675 122.356 226.848 121.914 226.978C122.061 226.654 122.103 226.459 122.23 226.329C122.525 226.004 122.609 225.636 122.419 225.225C122.293 224.944 122.188 224.597 122.398 224.381C122.925 223.818 122.82 223.212 122.672 222.585C122.63 222.39 122.567 222.217 122.525 222.022C122.546 222.022 122.588 222 122.609 222C122.567 222.022 122.546 222.022 122.504 222.043C122.103 221.524 121.429 221.697 120.903 221.437C120.734 221.351 120.439 221.502 120.228 221.611C119.702 221.849 119.196 222.152 118.669 222.368C118.417 222.476 118.122 222.498 117.827 222.52C117.427 222.52 117.384 222.455 117.068 221.697C117.637 221.113 118.164 220.442 117.743 219.511C117.363 218.689 116.963 217.866 115.552 218.039C116.078 217.563 116.436 217.303 116.71 216.979C117.174 216.438 116.9 215.724 116.184 215.702C115.467 215.68 114.709 215.659 114.056 216.048C113.529 216.351 113.024 216.762 112.392 217.217C112.244 217.195 111.907 217.152 111.591 217.109C111.528 216.979 111.465 216.892 111.465 216.827C111.591 216.07 111.738 215.312 111.907 214.49C111.043 214.208 110.601 213.581 110.411 212.78C110.369 212.564 110.39 212.217 110.517 212.087C111.022 211.611 110.938 211.027 110.938 210.464C110.685 210.204 110.474 209.966 110.243 209.728C110.264 209.728 110.306 209.707 110.327 209.707C110.306 209.728 110.264 209.75 110.243 209.75C108.431 210.226 106.64 210.832 104.955 211.719C104.449 211.979 103.944 212.282 103.417 212.542C103.206 212.369 103.249 212.196 103.438 212.066C103.754 211.849 104.112 211.676 104.428 211.46C104.976 211.113 105.439 210.68 105.482 209.88C105.292 209.62 105.06 209.295 104.829 208.949C104.913 208.689 104.934 208.343 105.102 208.148C105.524 207.737 105.545 207.326 105.355 206.806C105.292 206.633 105.355 206.417 105.355 206.222C105.755 205.919 106.156 205.637 106.514 205.313C106.851 205.01 107.041 204.642 107.062 204.144C107.062 203.69 106.851 203.408 106.514 203.084C105.945 203.3 105.334 203.516 105.06 204.144C104.765 204.837 104.281 205.161 103.628 205.183C102.764 205.248 102.343 205.746 102.153 206.525C101.795 206.655 101.479 206.806 101.163 206.871C100.763 206.958 100.489 207.174 100.173 207.434C99.7304 207.802 99.2458 208.127 98.7402 208.386C97.2445 209.165 95.7487 209.966 94.2951 210.875C93.9159 211.113 93.5999 211.438 93.2207 211.633C92.8415 211.828 92.5676 212.217 92.062 212.174C91.9146 212.152 91.6828 212.282 91.5986 212.434C90.9034 213.473 89.7658 213.84 88.7967 214.49C87.3431 215.464 85.8684 216.373 84.4148 217.368C83.9724 217.671 83.6353 218.104 83.2561 218.472C82.9822 218.732 82.7084 219.035 82.4134 219.273C82.1817 219.446 81.9289 219.554 82.0342 219.966C82.0553 220.074 81.7393 220.355 81.5286 220.42C80.7913 220.68 80.075 220.961 79.3166 221.091C78.5371 221.221 77.8419 221.459 77.1678 221.892C76.7043 222.195 76.2409 222.65 75.5878 222.476V222.52C75.6089 222.282 75.651 222.043 75.6931 221.719C74.5134 221.329 73.3968 220.875 72.1539 221.654C71.88 221.437 71.5851 221.221 71.2691 220.983C70.8478 220.918 70.5107 221.113 70.2158 221.373C69.963 221.589 69.6469 221.654 69.4152 221.437C69.0571 221.156 68.6989 221.199 68.3197 221.351C67.772 221.611 67.2243 221.697 66.6555 221.632C66.2973 221.221 66.2131 220.788 66.3816 220.355C66.6976 219.554 66.5291 218.797 66.2341 218.061C66.0235 217.563 66.0656 217.152 66.2341 216.633C66.5712 215.659 66.4237 215.356 65.6442 214.706C65.3493 214.447 65.0333 214.382 64.6962 214.425C64.317 214.49 63.9589 214.641 63.6008 214.793C63.369 214.879 63.1794 215.053 62.9688 215.161C61.8101 215.702 61.5784 215.377 61.1359 214.685C61.0306 214.511 60.9042 214.36 60.7989 214.208C59.6191 213.84 58.5026 213.884 57.4493 214.555C57.2597 214.685 56.9858 214.771 56.7751 214.75C55.9746 214.706 55.2372 214.923 54.521 215.204C53.5308 215.594 52.646 215.55 51.8033 214.814C51.4873 214.533 51.0871 214.338 50.6236 214.295C50.118 214.252 50.0337 213.927 50.2655 213.451C50.5815 212.845 50.8975 212.217 51.2345 211.633C51.4873 211.178 51.5505 210.767 51.3188 210.226C51.1503 209.836 51.2135 209.36 51.1503 208.906C51.0449 208.018 50.5815 207.542 49.7177 207.564C48.9383 207.564 48.1798 207.672 47.4004 207.715C47.0633 207.737 46.7262 207.759 46.4102 207.694C45.694 207.542 44.9988 207.391 44.2614 207.521C43.9665 207.585 43.5451 207.477 43.3134 207.282C42.5339 206.698 41.607 206.352 40.9539 205.594C40.5537 205.14 40.0902 204.815 39.4582 204.793C39.2475 204.793 39.0368 204.577 38.8262 204.469C38.3838 203.495 38.6998 202.607 39.1632 201.763C39.395 201.33 39.6267 200.919 39.8585 200.486C40.0691 200.053 40.4694 199.707 40.8275 199.382C41.2699 198.95 41.5227 198.452 41.6913 197.759C40.3641 197.716 39.0579 197.326 38.0046 198.408C37.6886 198.322 37.4147 198.257 37.0987 198.192C37.0987 197.846 37.0776 197.543 37.0987 197.261C37.1408 196.634 37.3094 196.028 37.0566 195.378C36.8248 194.794 37.0355 194.253 37.3726 193.712C38.447 192.002 39.7321 190.444 40.7222 188.669C40.975 188.214 41.4806 187.911 41.8809 187.565C42.3022 187.197 42.239 186.764 41.6913 186.569C41.3753 186.461 41.0382 186.418 40.7433 186.353C39.5003 187.219 39.1 188.907 37.6254 189.578C37.3515 189.167 37.0776 188.777 36.7827 188.344C36.572 188.474 36.3824 188.539 36.256 188.669C35.4766 189.47 34.6971 190.292 33.9176 191.115C33.5173 191.547 33.3488 192.002 33.4963 192.608C33.5805 192.933 33.6016 193.301 33.5595 193.625C33.5173 193.907 33.5805 194.101 33.728 194.318C34.044 194.729 33.7912 195.075 33.5384 195.378C33.3277 195.638 33.0117 195.681 32.7589 195.487C32.3376 195.162 31.9795 194.794 31.5371 194.383C31.7267 193.582 31.3475 192.759 31.6635 191.937C31.7477 191.699 31.6635 191.309 31.516 191.093C30.9893 190.357 31.0947 189.599 31.3896 188.82C31.4107 188.777 31.3896 188.712 31.3896 188.582C30.8208 188.193 30.9051 187.435 30.6101 186.764C30.4416 186.699 30.252 186.656 30.0834 186.591C28.7984 186.223 28.7984 186.223 27.7872 187.002C27.5344 186.656 27.7872 186.418 27.9768 186.223C28.5245 185.66 29.0301 185.076 29.5778 184.492C30.6101 183.388 31.7688 182.392 32.8643 181.332C34.1072 180.141 35.308 178.929 36.5299 177.717C36.6352 177.609 36.7195 177.327 36.6563 177.219C36.5931 177.089 36.3403 176.981 36.1718 177.003C35.7504 177.024 35.308 177.111 34.8867 177.176C34.6128 177.219 34.3179 177.284 34.044 177.327C33.9176 177.176 33.8333 177.068 33.7491 176.959C33.5595 176.743 33.412 176.418 33.1803 176.332C32.8011 176.18 32.4008 176.353 32.1059 176.635C31.7267 177.003 31.3896 177.436 31.0315 177.847C30.7365 178.172 30.4837 178.561 30.1677 178.842C29.5568 179.405 28.8405 179.86 28.2928 180.487C27.7661 181.115 27.429 181.894 26.9656 182.587C26.7338 182.955 26.481 183.344 25.9965 183.453C25.4277 183.344 25.1959 182.89 25.1538 182.392C25.1327 181.981 25.3855 181.678 25.7226 181.418C26.1861 181.072 26.5864 180.617 26.9656 180.163C27.5344 179.492 28.04 178.756 28.8405 178.323C29.0722 178.193 29.2408 177.89 29.4304 177.695C29.641 177.501 29.8096 177.198 30.0624 177.133C30.8419 176.873 31.1789 176.18 31.5792 175.596C31.9163 175.12 31.9163 174.535 31.6635 174.038C31.4317 173.561 31.0525 173.15 30.7155 172.717C30.3573 172.263 29.8096 172.198 29.304 172.176C28.9248 171.527 28.7984 170.943 29.0933 170.293C29.4093 169.557 29.6832 168.821 30.5259 168.518C30.9261 168.367 31.2632 168.042 31.6003 167.783C32.3376 167.22 33.1171 166.722 34.0651 166.592C34.2968 166.549 34.5285 166.462 34.7392 166.354C36.235 165.553 37.6886 164.666 39.1 163.735C39.8795 163.237 40.6169 162.675 41.4174 162.242C43.2923 161.203 44.9566 159.839 46.7473 158.649C47.6953 158.021 48.5169 157.264 49.1489 156.29C49.2753 156.095 49.3385 155.835 49.4439 155.51C48.3062 155.316 47.295 155.251 46.4313 156.117C45.9046 156.658 45.3569 157.134 44.5142 156.939L44.5353 156.961C44.8513 156.679 45.1462 156.376 45.4833 156.095C46.1153 155.554 46.7684 155.056 47.3793 154.493C48.3484 153.606 49.2332 152.61 50.2444 151.766C51.0871 151.052 51.698 150.186 52.2879 149.277C52.7303 148.628 53.1727 147.978 53.7626 147.437C54.1628 147.069 54.1628 147.048 54.3524 146.182C54.0996 145.879 53.8258 146.009 53.573 146.16C52.0561 147.048 50.6868 148.152 49.4228 149.364C48.8329 149.926 48.1166 150.403 47.7374 151.203C47.6321 151.441 47.3161 151.593 47.0633 151.723C46.2628 152.199 45.5254 152.74 44.8513 153.389C43.8822 154.298 42.8499 155.121 41.6491 155.662C41.4174 155.467 41.5859 155.294 41.7123 155.186C42.5761 154.298 43.4187 153.433 44.3036 152.567C44.5564 152.329 44.8302 152.112 45.1041 151.918C46.0732 151.16 47.0422 150.446 47.4636 149.191C47.5689 148.887 47.8428 148.649 47.9902 148.346C48.0745 148.152 48.0745 147.892 48.0956 147.675C47.8006 147.329 47.5268 147.524 47.3161 147.697C46.7262 148.195 46.1153 148.714 45.5886 149.277C45.083 149.818 44.5142 150.251 43.8822 150.641C43.4187 150.922 43.0395 151.29 42.5761 151.593C42.3865 151.723 42.1547 151.744 41.7755 151.853C42.0073 151.095 42.5339 150.792 42.8499 150.338C43.187 149.861 43.6294 149.472 43.6294 148.866C43.4187 148.584 43.2291 148.714 43.0817 148.823C42.7657 149.039 42.4707 149.32 42.1758 149.558C41.5438 150.1 40.9329 150.662 40.1745 151.009C39.7953 151.182 39.4582 151.506 39.1422 151.809C38.4048 152.459 37.7096 153.151 36.9302 153.757C35.5398 154.84 34.3179 156.117 32.9696 157.242C32.6747 157.502 32.4429 157.848 32.0005 157.87C31.832 157.87 31.5581 157.87 31.4739 157.761C31.3475 157.588 31.2843 157.307 31.3264 157.09C31.3685 156.874 31.5371 156.614 31.7056 156.463C33.0117 155.424 33.8755 153.952 35.0131 152.74C35.4344 152.286 35.8768 151.831 36.1507 151.225C36.3614 150.792 36.7406 150.424 37.0776 150.078C37.5832 149.558 38.1099 149.017 38.6787 148.563C39.2475 148.087 39.4582 147.459 39.5635 146.723C39.2686 146.528 38.9947 146.334 38.763 146.182C38.5944 146.247 38.4891 146.247 38.4048 146.29C36.5088 147.914 34.6128 149.558 32.7168 151.182C32.5272 151.333 32.3376 151.485 32.1269 151.615C31.516 152.004 31.3475 151.961 30.6101 151.16C31.7688 149.818 33.0117 148.498 33.4541 146.55C33.2645 146.55 33.096 146.507 32.9485 146.55C31.7477 146.918 30.884 147.805 29.8938 148.52C29.3461 148.909 28.7773 149.299 28.2085 149.667L28.2296 149.688C28.3349 148.974 28.9669 148.693 29.3882 148.238C30.3152 147.221 31.2632 146.247 31.8741 144.992C32.0848 144.559 32.4008 144.169 32.7379 143.844C33.4331 143.174 33.9387 142.459 33.8333 141.399C33.7912 140.966 33.8965 140.533 33.9387 140.1C33.3277 139.234 32.5061 139.256 31.7267 139.602C30.9261 139.949 30.1045 140.208 29.2408 140.317C28.8194 140.382 28.3981 140.555 28.0189 140.771C27.3026 141.182 26.6285 141.117 25.9965 140.598C25.6173 140.295 25.2591 139.97 24.901 139.646C24.5007 139.278 24.1215 138.91 23.7002 138.477C23.3631 138.628 23.0471 138.737 22.7943 138.931C22.2677 139.321 21.741 139.386 21.1722 139.126V139.169C21.2775 138.78 21.3829 138.412 21.5303 137.957C21.0668 137.373 20.6876 136.724 20.7508 135.858C20.7719 135.512 20.4559 135.144 20.3295 134.776C20.0978 134.148 20.0556 133.542 20.5612 132.979C20.8351 132.655 21.0036 132.222 21.1511 131.811C21.3407 131.291 20.9826 130.75 20.4559 130.772C20.0767 130.793 19.6975 130.923 19.3604 131.096C18.7916 131.378 18.2439 131.702 17.7172 132.07C17.1273 132.482 16.4953 132.611 15.8001 132.676C15.1681 132.72 14.6204 132.698 14.2833 132.114C14.0095 131.637 13.4617 131.875 13.0825 131.551C13.23 130.902 13.5039 130.295 13.9673 129.798C14.494 129.213 14.9364 128.564 14.8943 127.59C14.5151 127.33 14.0937 127.027 13.6935 126.746C12.7665 126.616 12.3873 127.503 11.4604 127.871C11.8185 127.352 12.0502 127.006 12.3241 126.616C12.3241 126.573 12.3662 126.486 12.3452 126.4C12.1345 125.274 11.9449 125.123 10.9548 125.166C10.7652 125.166 10.5756 125.166 10.3649 125.209C10.07 125.252 9.79609 125.296 9.48009 125.361C9.16409 125.036 9.01662 124.668 9.10089 124.17C9.16409 123.781 9.29049 123.348 9.16409 123.023C8.97449 122.482 9.03769 122.114 9.45902 121.725C9.60649 121.595 9.58543 121.27 9.64863 121.032C9.81716 120.426 10.0278 119.928 10.6598 119.56C11.4393 119.106 12.0713 118.37 12.7455 117.742C12.7876 117.764 12.8087 117.785 12.8508 117.807C12.8087 117.785 12.7665 117.785 12.7244 117.764C13.4196 117.417 14.0727 117.049 14.6204 116.465C15.1681 115.881 15.8844 115.469 16.4953 114.95C16.9167 114.582 17.338 114.193 17.4644 113.522C17.5698 112.937 18.2018 112.613 18.6863 112.353C18.9812 112.201 19.2551 112.05 19.5079 111.833C19.8871 111.53 20.2452 111.206 20.793 111.206C20.9194 111.206 21.0668 111.119 21.1932 111.054C22.3519 110.34 23.5106 109.647 24.6482 108.911C24.9431 108.717 25.1749 108.5 25.533 108.479C25.6594 108.479 25.8069 108.392 25.9333 108.305C27.7029 106.855 29.7674 105.838 31.4949 104.345C31.7267 104.15 31.9163 103.912 32.1901 103.803C32.8011 103.544 33.2224 103.089 33.5595 102.527C33.9176 101.92 34.4443 101.531 35.1395 101.314C35.6662 101.163 36.1296 100.817 36.572 100.384C37.2672 99.6479 38.152 99.0852 38.9736 98.4575C39.5003 98.0462 39.8795 97.5917 39.9217 96.9208C39.6689 96.6394 39.4371 96.7476 39.2265 96.8558C38.3838 97.3536 37.5411 97.8298 36.7195 98.3709C36.0454 98.8254 35.2869 99.1501 34.676 99.7561C34.4021 100.037 33.8755 100.232 33.4963 100.189C32.8853 100.124 32.464 100.362 32.0216 100.665C31.7056 100.882 31.3685 101.12 31.0315 101.271C30.8208 101.358 30.5469 101.401 30.3363 101.358C29.8517 101.25 29.5357 101.466 29.4304 101.856C29.1776 102.7 28.4402 102.894 27.8293 103.262C26.8181 102.873 26.2072 103.977 25.3013 103.998C25.1749 103.998 25.0274 104.107 24.9221 104.215C23.321 105.751 21.4039 106.834 19.6764 108.197C19.4868 108.349 19.2551 108.479 19.0234 108.479C17.338 108.5 16.1583 109.539 14.9785 110.556C14.8311 110.686 14.6836 110.859 14.5151 110.881C13.7145 111.011 13.1036 111.509 12.4716 111.963C11.5236 112.634 10.5756 113.348 9.58543 113.976C8.91129 114.409 8.30035 114.842 7.90008 115.578C7.81581 115.729 7.58408 115.794 7.35234 115.946C7.18381 115.686 7.05741 115.448 6.88887 115.231C6.50967 114.712 6.1094 114.149 5.35099 114.063C4.80326 113.998 4.69792 113.543 5.03499 113.11C6.27794 111.422 6.4886 111.227 8.34248 109.907C9.43796 109.085 10.5334 108.305 11.671 107.591C12.3241 107.18 13.0193 106.812 13.6513 106.379C13.8409 106.249 14.0937 106.206 14.3255 106.119C14.5993 106.011 14.9364 105.99 15.1049 105.795C15.8212 104.994 16.8113 104.691 17.7172 104.236C18.0543 104.063 18.3914 103.847 18.6863 103.609C19.4026 103.024 20.161 102.505 21.0247 102.137C21.5514 101.899 22.0359 101.553 22.5205 101.25C22.689 101.141 22.8154 100.947 22.9839 100.903C24.4797 100.644 25.4066 99.3449 26.7128 98.7605C27.3658 98.4575 27.8925 97.8947 28.4824 97.4835C29.5989 96.7043 30.6733 95.8602 31.8531 95.2109C33.3909 94.3668 34.7603 93.2846 36.235 92.3539C36.5299 92.1808 36.7827 91.9427 37.0355 91.7263C38.2152 90.709 39.416 89.7134 40.8065 88.9775C41.5017 88.6096 41.9441 87.917 42.1337 87.1161C42.1758 86.9213 42.1126 86.5967 41.9651 86.4452C41.7545 86.1854 41.4595 86.0123 41.2489 85.8392C38.447 87.4624 35.7083 89.0424 32.9696 90.6224C32.6325 90.8172 32.2744 91.012 31.9795 91.2285C31.0315 91.9211 30.0202 92.5271 29.009 93.0898C27.9978 93.6526 27.0498 94.3668 26.0808 95.0161C25.8069 95.2109 25.5119 95.3841 25.1959 95.5356C23.1525 96.5745 21.13 97.6134 19.234 98.9336C18.4335 99.4964 17.5487 99.9076 16.7271 100.427C15.7369 101.055 14.7889 101.726 13.8199 102.397C12.8297 103.089 11.8185 103.782 10.8284 104.496C10.2385 104.907 9.66969 105.362 9.07982 105.795C8.25822 104.821 7.96328 104.648 7.01527 104.669C6.69927 104.669 6.27794 104.734 6.06727 104.929C5.16139 105.708 4.02379 106.054 3.09684 106.747C2.57017 107.137 2.14884 107.548 1.8539 108.176C1.62217 108.652 1.26403 109.063 0.969095 109.496C-0.12638 108.933 -0.315981 108.176 0.400291 107.375C0.589892 107.158 0.863761 106.985 0.990162 106.725C1.1587 106.379 1.4115 106.206 1.74857 106.119C2.29631 105.99 2.69657 105.665 3.09684 105.297C3.47605 104.951 3.81312 104.539 4.38192 104.388C4.74006 104.28 5.01393 103.803 5.30886 103.479C5.6038 103.154 5.8566 102.786 6.34114 102.721C6.50967 102.7 6.72034 102.591 6.82567 102.44C7.28914 101.812 7.96328 101.531 8.61635 101.206C9.64863 100.687 10.5966 99.9942 11.4182 99.1934C11.9238 98.6956 12.303 98.003 12.6401 97.3536C12.7455 97.1372 12.8087 96.9424 13.0193 96.8126C13.8831 96.2065 14.8732 96.0117 15.8633 95.8169C16.2425 95.752 16.6217 95.7087 16.9799 95.5572C17.6962 95.2542 18.4756 95.0161 19.0655 94.54C19.9714 93.7824 21.0458 93.3495 22.0359 92.7435C22.6679 92.3756 23.321 92.0293 23.8477 91.5531C24.4165 91.0553 25.0906 90.7956 25.7437 90.4709C26.4178 90.1463 26.9866 89.6917 27.3658 89.0424C27.5133 88.8044 27.5344 88.5013 27.6186 88.1767C26.4389 87.9386 25.6173 88.5879 24.7535 89.0641C24.4586 89.2372 24.2058 89.4537 23.8266 89.3887C23.8266 89.3671 23.8055 89.3238 23.8055 89.3022C23.8266 89.3454 23.8477 89.3671 23.8477 89.4104C23.7002 89.6917 23.4685 89.7134 23.2157 89.6701L23.2578 89.7134C23.2367 89.3238 23.2157 88.9342 23.2157 88.6528C23.8898 88.1767 24.5007 87.8087 25.0274 87.3109C25.5119 86.8781 26.2493 87.0729 26.6496 86.5101C27.5133 86.2287 27.9978 85.4063 28.7352 84.995C29.4936 84.5838 30.3573 84.4107 31.1157 84.0211C31.7899 83.6531 32.3797 83.1337 33.0117 82.6792C33.2435 82.506 33.4752 82.2679 33.728 82.203C34.5917 81.9866 34.992 81.3805 35.2238 80.4931C35.0763 80.2551 34.9288 79.952 34.7392 79.649C34.9499 79.1079 35.3923 78.7184 35.8768 78.3937C36.1086 78.2422 36.3403 78.0474 36.572 77.8742C36.9934 77.5496 37.0355 77.16 36.8459 76.7055C35.3712 76.3592 35.3291 76.251 34.4232 77.766C34.044 77.8959 33.6016 78.0907 33.1381 78.2855ZM46.8526 180.639L46.9158 180.617L46.8948 180.682C46.8737 180.704 46.8316 180.704 46.8105 180.726C46.8316 180.682 46.8316 180.661 46.8526 180.639ZM50.9396 69.2817C50.9607 69.2384 50.9817 69.2167 51.0028 69.1734C50.9817 69.2167 50.9817 69.26 50.9396 69.2817C50.9185 69.3033 50.8975 69.3249 50.8553 69.3249C50.8975 69.3033 50.9185 69.3033 50.9396 69.2817ZM225.457 91.7696C225.436 91.8345 225.415 91.9211 225.394 91.986C225.415 91.8994 225.415 91.8128 225.436 91.7263C225.52 91.7046 225.584 91.7046 225.668 91.683C225.647 91.6397 225.605 91.5748 225.584 91.5315C225.541 91.618 225.499 91.7046 225.457 91.7696ZM184.335 17.1851C183.998 17.1851 183.661 17.1418 183.345 17.1851C183.197 17.2067 183.029 17.4015 182.986 17.553C182.923 17.8127 183.176 17.856 183.345 17.856C183.787 17.856 184.187 17.7045 184.419 17.2716C184.482 17.1851 184.524 17.1201 184.588 17.0336C184.503 17.0769 184.419 17.1201 184.335 17.1851ZM33.1381 189.643C33.3277 189.513 33.5595 189.426 33.728 189.253C34.4864 188.474 35.2027 187.673 35.9611 186.916C37.0355 185.855 37.9414 184.6 39.3318 183.885C39.8374 183.626 40.1955 183.106 40.4905 182.565C40.6379 182.284 40.8907 182.024 41.1225 181.786C42.2179 180.79 43.3134 179.838 44.4089 178.842C44.5985 178.669 44.6828 178.366 44.8934 177.977C44.5774 177.977 44.3668 177.912 44.2404 177.998C44.0086 178.15 43.7558 178.366 43.6505 178.604C43.4819 179.016 43.2291 179.254 42.871 179.449C42.5339 179.643 42.1969 179.838 41.8809 180.076C41.2489 180.531 40.6379 181.029 40.027 181.505C39.8795 182.37 39.1211 182.565 38.5312 182.933C38.3627 183.041 38.2152 183.15 38.0678 183.279C36.5299 184.73 35.1395 186.31 33.7491 187.933C33.4963 188.236 33.2645 188.561 33.1171 188.928C33.0328 189.123 33.1381 189.383 33.1381 189.621C33.096 189.621 33.0539 189.643 33.0328 189.643C33.0117 189.643 33.0117 189.686 33.0117 189.708C33.0749 189.729 33.1171 189.686 33.1381 189.643ZM107.989 206.741C107.989 206.763 108.01 206.806 108.01 206.828C107.989 206.806 107.967 206.763 107.967 206.741C108.347 206.547 108.726 206.33 109.126 206.2C109.442 206.114 109.737 206.027 110.053 205.832C111.612 204.837 113.297 204.101 115.004 203.408C115.214 203.322 115.446 203.213 115.636 203.084C116.099 202.716 116.542 202.348 116.984 201.958C117.405 201.59 117.405 201.482 117.047 200.638C116.773 200.659 116.5 200.659 116.205 200.724C116.015 200.768 115.762 200.833 115.699 200.941C115.404 201.677 114.688 201.85 114.14 202.153C112.497 203.062 110.79 203.884 109.126 204.75C108.789 204.923 108.452 205.14 108.115 205.356C107.925 205.486 107.736 205.659 107.567 205.832C107.378 206.049 107.441 206.287 107.651 206.482C107.757 206.568 107.883 206.655 107.989 206.741ZM103.986 42.8979L104.007 42.9845L103.965 42.9412C104.491 42.5083 105.018 42.0971 105.545 41.6425C105.734 41.491 105.882 41.253 106.093 41.1664C107.293 40.6686 108.136 39.6946 109.063 38.8289C109.379 38.5258 109.695 38.1795 110.095 38.028C111.401 37.5302 112.307 36.448 113.403 35.6689C114.077 35.1927 114.625 34.5434 115.193 33.9374C115.299 33.8291 115.32 33.5478 115.278 33.3746C115.214 33.0716 114.92 33.0067 114.709 33.0716C113.972 33.3097 113.297 33.6127 112.708 34.1754C112.181 34.6732 111.591 35.1278 111.001 35.539C110.411 35.9286 110.053 36.6428 109.295 36.8593C109 36.9458 108.705 37.2489 108.536 37.5302C108.178 38.1363 107.63 38.396 107.041 38.6341C106.682 38.7856 106.303 38.9371 106.029 39.1968C105.292 39.8245 104.597 40.5387 103.881 41.188C103.67 41.3828 103.438 41.5776 103.185 41.7075C102.027 42.4001 100.847 43.071 99.6672 43.7636C98.8245 44.2614 97.9818 44.7593 97.1813 45.3003C96.5282 45.7332 95.8119 46.1228 95.3485 46.7288C94.8007 47.4214 94.0845 47.811 93.4525 48.3305C92.3991 49.1962 91.2826 49.997 90.1871 50.8195C89.4498 51.3606 88.6914 51.9017 87.9119 52.3779C87.5327 52.6159 87.1745 52.8107 87.006 53.2869C86.9007 53.5899 86.5847 53.6332 86.3319 53.7631C85.0679 54.434 83.6353 54.8453 82.6662 56.0573C82.5398 56.2088 82.3713 56.317 82.2238 56.4253C81.1916 57.1611 80.1593 57.8754 79.127 58.6113C78.8531 58.8061 78.6425 59.0658 78.4107 59.3039C78.5582 59.6069 78.7478 59.7151 79.0217 59.6502C80.0118 59.3904 80.8966 58.9359 81.7604 58.3515C83.1929 57.3559 84.5623 56.317 86.1633 55.5595C87.322 54.9968 88.4175 54.1959 89.2602 53.1354C89.9554 52.2696 90.8191 51.8584 91.8303 51.6203C92.2306 51.5338 92.7151 51.3823 92.989 51.0792C93.305 50.7329 93.6631 50.5598 94.0423 50.365C94.8639 49.9321 95.7487 49.5858 96.4439 48.9798C97.1602 48.3521 97.8133 47.6595 98.5506 47.0318C99.4565 46.2743 100.426 45.6466 101.331 44.9108C102.132 44.1749 103.08 43.5688 103.986 42.8979ZM36.867 78.7833C37.0144 79.346 37.3515 79.4975 37.6886 79.4542C38.8472 79.2594 39.9849 78.9348 40.7854 78.0041C41.3121 77.3981 41.923 77.0301 42.6182 76.9436C43.5873 76.8353 44.1561 76.2077 44.767 75.6233C44.8934 75.4934 44.9777 75.277 45.0198 75.1038C45.062 74.974 45.0409 74.7575 44.9777 74.6926C44.8513 74.606 44.5985 74.4978 44.4721 74.5627C43.2081 75.1904 41.9862 75.8397 40.7222 76.489C40.5115 76.5973 40.3009 76.7055 40.0691 76.7921C38.8894 77.2033 37.8571 77.9392 36.867 78.7833ZM45.062 83.4583C45.7361 84.0644 45.7572 84.0427 46.0521 84.0644C47.611 84.1293 48.9172 83.3718 50.2233 82.6359C50.4972 82.4844 50.6868 82.1381 50.8764 81.8567C51.0028 81.6403 51.0028 81.3805 50.7711 81.1857C50.6236 81.0559 50.4761 80.9477 50.2444 80.7962C49.4017 81.1208 48.538 81.3805 47.7374 81.7918C46.8526 82.2463 46.031 82.8307 45.062 83.4583ZM107.483 202.283C108.178 203.3 108.157 203.278 109.084 202.997C109.737 202.802 110.348 202.521 110.917 202.153C111.612 201.698 112.328 201.287 113.024 200.854C113.424 200.616 113.592 200.227 113.445 199.88C113.318 199.577 112.834 199.426 112.413 199.599C112.286 199.642 112.16 199.75 112.033 199.815C111.57 200.075 111.085 200.313 110.643 200.616C109.99 201.071 109.337 201.46 108.515 201.244C108.157 201.612 107.82 201.958 107.483 202.283ZM47.0001 73.3507C47.2318 73.5022 47.3793 73.6537 47.5268 73.697C48.3273 73.8918 49.0436 73.5888 49.7177 73.1992C50.0127 73.026 50.2865 72.7014 50.5815 72.6797C51.2135 72.6365 51.6348 72.2252 52.1615 71.9871C52.2457 71.9438 52.2879 71.8356 52.33 71.7923C52.33 71.4893 52.33 71.208 52.33 70.84C52.0351 70.84 51.7823 70.7751 51.5927 70.8617C50.7921 71.208 50.0127 71.5759 49.2332 71.9438C48.7065 72.1819 48.1798 72.42 47.6742 72.7014C47.4425 72.8529 47.274 73.091 47.0001 73.3507ZM41.3963 195.79C41.8177 196.179 42.239 196.547 42.5971 196.872C43.4187 196.634 43.7558 196.071 43.8611 195.335C43.9454 194.816 43.798 194.426 43.3555 194.253C42.9553 194.101 42.555 193.863 42.0073 194.101C41.8177 194.621 41.607 195.205 41.3963 195.79ZM48.9383 180.661C48.0745 181.007 47.4846 181.137 47.0422 181.656C46.6841 182.046 46.2628 182.435 45.694 182.457C44.6406 182.479 43.9033 183.128 43.187 183.799C43.1027 183.885 43.1238 184.037 43.0817 184.21C43.2713 184.232 43.4398 184.297 43.5451 184.253C44.2825 183.885 45.0198 183.518 45.7361 183.128C46.1574 182.89 46.5366 182.544 46.979 182.414C47.6321 182.219 48.0956 181.764 48.6223 181.396C48.7276 181.31 48.7487 181.137 48.9383 180.661ZM110.306 34.9113C109.379 34.7815 108.768 34.8031 108.262 35.2143C107.862 35.5606 107.546 35.9935 107.736 36.7078C108.01 36.6861 108.347 36.7294 108.515 36.5995C109.063 36.145 109.569 35.6256 110.306 34.9113ZM172.664 20.7996C171.969 20.6048 171.463 20.8212 171.042 21.2541C170.936 21.3623 170.957 21.622 170.957 21.8168C170.957 22.0549 171.105 22.1848 171.337 22.1199C171.969 21.9467 172.369 21.5138 172.664 20.7996ZM177.046 21.8818C177.025 21.6437 176.561 21.384 176.35 21.5355C176.119 21.687 175.908 21.9034 175.739 22.1199C175.55 22.3579 175.739 22.7042 176.034 22.7908C176.561 22.9207 177.109 22.4445 177.046 21.8818ZM57.4914 67.6151C56.8594 67.4636 56.417 67.9397 55.8903 68.0696C55.6164 68.1345 55.2372 68.2644 55.3426 68.5891C55.49 69.0219 55.785 68.5891 56.0167 68.5891C56.6908 68.5891 57.1333 68.2211 57.4914 67.6151ZM191.287 76.4674C190.844 76.6405 190.571 76.7055 190.36 76.857C190.255 76.9219 190.255 77.2033 190.297 77.3548C190.318 77.4414 190.528 77.5063 190.655 77.5063C191.139 77.5063 191.139 77.0518 191.287 76.4674ZM241.236 98.4358C241.489 98.6739 241.615 98.8687 241.805 98.9336C241.931 98.9769 242.184 98.8687 242.269 98.7605C242.353 98.6306 242.311 98.3925 242.247 98.241C242.205 98.1545 242.016 98.0679 241.91 98.0895C241.721 98.1328 241.531 98.2627 241.236 98.4358ZM47.0422 71.6192C46.5788 71.6408 46.0942 71.6625 45.8414 72.2252C46.5998 72.117 46.5998 72.117 47.0422 71.6192ZM54.7316 70.0608C54.205 69.6712 53.9311 69.8011 53.7204 70.1258C53.6572 70.2123 53.6362 70.4288 53.6994 70.4937C53.7626 70.5803 53.9732 70.6885 54.0575 70.6452C54.2892 70.4937 54.4788 70.2989 54.7316 70.0608ZM78.2211 53.3951C78.1579 53.2869 78.1369 53.157 78.0947 53.157C78.0105 53.1354 77.9051 53.1787 77.863 53.2436C77.8209 53.2869 77.863 53.3951 77.8841 53.4601C77.9894 53.4384 78.1158 53.4168 78.2211 53.3951ZM111.528 209.014C111.444 209.122 111.359 209.209 111.296 209.317C111.338 209.339 111.38 209.404 111.422 209.382C111.528 209.339 111.633 209.274 111.738 209.209C111.675 209.165 111.633 209.122 111.528 209.014ZM190.444 10.4106C190.339 10.4755 190.233 10.5188 190.233 10.5621C190.233 10.6486 190.255 10.7569 190.318 10.8002C190.36 10.8434 190.465 10.7785 190.549 10.7569C190.507 10.6486 190.465 10.5404 190.444 10.4106ZM175.276 22.5744C175.213 22.6177 175.15 22.6609 175.086 22.7259C175.065 22.7475 175.086 22.8557 175.107 22.8557C175.171 22.8557 175.255 22.8557 175.318 22.8341C175.318 22.7692 175.297 22.6826 175.276 22.5744ZM48.4748 70.7751H48.3905L48.4327 70.8833L48.4748 70.7751ZM45.0198 147.567C44.9356 147.546 44.8513 147.502 44.767 147.481C44.746 147.481 44.7038 147.546 44.6617 147.567C44.7249 147.611 44.7881 147.697 44.8513 147.697C44.8934 147.719 44.9566 147.632 45.0198 147.567ZM205.486 55.7976L205.528 55.8842L205.57 55.7976H205.486Z" fill="#F8275A"/>
<path d="M9.64865 91.7046C8.80598 92.3755 8.08971 92.895 7.18383 93.0898C6.8257 93.1547 6.48863 93.4361 6.15156 93.6309C5.05608 94.2586 3.98168 94.9295 2.86513 95.5355C2.52806 95.7303 2.16993 96.0983 1.68539 95.8818C1.68539 95.7736 1.62219 95.6438 1.66432 95.6005C2.90727 94.5616 4.12914 93.5443 5.47742 92.4621C5.91982 92.5271 6.44649 92.5703 7.0153 92.289C7.79477 91.921 8.65851 91.8345 9.64865 91.7046Z" fill="#F8275A"/>
<path d="M191.877 0.887282C192.108 0.865638 192.256 0.865638 192.382 0.843994C192.993 1.55824 192.551 2.66207 193.309 3.31139C192.993 4.13385 192.846 5.04289 192.193 5.77878C192.066 5.62727 191.919 5.51905 191.919 5.43248C192.277 3.9607 191.94 2.48892 191.877 0.887282Z" fill="#F8275A"/>
<path d="M182.291 3.91748C183.324 4.00406 184.082 4.06899 184.798 4.11227C185.198 4.48022 185.177 4.82652 184.819 5.23775C184.272 5.23775 183.661 5.23775 182.902 5.23775C182.755 4.91309 182.565 4.50186 182.291 3.91748Z" fill="#F8275A"/>
<path d="M209.236 49.2612C209.278 50.127 209.13 50.6897 208.857 51.339C208.351 50.9278 207.909 50.5815 207.487 50.2352C207.761 49.3262 208.583 49.759 209.236 49.2612Z" fill="#F8275A"/>
<path d="M34.4653 196.785C34.4021 196.742 34.381 196.612 34.3389 196.526C34.2336 196.244 34.1493 195.92 34.4653 195.746C34.5917 195.682 34.8445 195.682 34.9709 195.768C35.3501 196.028 35.3712 196.288 35.1816 196.656C35.0131 197.023 34.7392 196.915 34.4653 196.785Z" fill="#F8275A"/>
<path d="M179.258 5.82227C179.595 6.10363 179.826 6.29843 180.227 6.64473C179.595 6.64473 179.194 6.64473 178.773 6.64473C178.562 6.08199 179.11 6.16857 179.258 5.82227Z" fill="#F8275A"/>
<path d="M38.152 201.179C38.2995 201.59 38.3838 201.807 38.447 202.001C38.2363 202.304 37.9624 202.478 37.7307 202.196C37.4568 201.85 37.7728 201.612 38.152 201.179Z" fill="#F8275A"/>
<path d="M72.4699 56.144C72.807 55.7328 73.2704 55.5163 73.6918 55.3215C73.776 55.3865 73.8603 55.4298 73.8603 55.4514C73.776 55.6895 73.6918 55.9492 73.5864 56.2089C73.1651 56.1656 72.807 56.144 72.4278 56.1007L72.4699 56.144Z" fill="#F8275A"/>
<path d="M115.257 29.4788C115.088 30.0631 114.604 30.193 113.908 30.5177C114.372 29.8034 114.835 29.6736 115.299 29.5004L115.257 29.4788Z" fill="#F8275A"/>
<path d="M75.7142 54.6072C75.4192 54.737 75.1032 54.8885 74.6608 54.8236C74.9768 54.5206 75.2086 54.3041 75.5456 53.9795C75.6088 54.2825 75.651 54.4557 75.6931 54.6288L75.7142 54.6072Z" fill="#F8275A"/>
<path d="M210.816 68.7408C211.258 68.6758 211.469 68.849 211.448 69.2819C211.448 69.3684 211.363 69.4983 211.321 69.4983C211.216 69.4767 211.069 69.4334 211.026 69.3468C210.942 69.1736 210.9 68.9572 210.816 68.7408Z" fill="#F8275A"/>
<path d="M72.3646 225.182C72.2171 225.398 72.0696 225.615 71.7958 225.398C71.7536 225.355 71.7115 225.16 71.7536 225.139C71.9643 224.944 72.175 224.944 72.3646 225.182Z" fill="#F8275A"/>
<path d="M207.887 52.2048C207.951 52.6161 207.845 52.984 207.55 53.287C207.213 52.8541 207.74 52.5944 207.74 52.2481H207.698C207.761 52.313 207.845 52.313 207.908 52.2265L207.887 52.2048Z" fill="#F8275A"/>
<path d="M227.269 85.1899C227.311 84.9302 227.206 84.6055 227.564 84.4324C227.585 84.757 227.374 84.9302 227.248 85.1683L227.269 85.1899Z" fill="#F8275A"/>
<path d="M28.5877 191.547C28.7562 191.569 28.8826 191.547 28.988 191.591C29.0512 191.612 29.0512 191.764 29.0933 191.829C28.988 191.829 28.8826 191.85 28.7773 191.807C28.7141 191.785 28.672 191.677 28.5877 191.547Z" fill="#F8275A"/>
<path d="M207.677 47.7463C207.698 47.7895 207.74 47.8112 207.761 47.8545C207.782 47.9843 207.866 48.1791 207.824 48.2008C207.635 48.3306 207.487 48.2657 207.403 48.0493L207.382 48.0709C207.487 47.9627 207.614 47.8328 207.719 47.7246L207.677 47.7463Z" fill="#F8275A"/>
<path d="M22.1834 90.6008C22.0991 90.2112 22.3098 90.0381 22.6258 89.9515L22.5836 89.9082C22.6258 90.2761 22.2676 90.3627 22.1412 90.6008H22.1834Z" fill="#F8275A"/>
<path d="M100.489 37.8767C100.468 38.1364 100.594 38.5044 100.131 38.4394L100.152 38.4827C100.278 38.2879 100.383 38.0715 100.51 37.8767H100.489Z" fill="#F8275A"/>
<path d="M22.6258 89.9516C22.8365 89.865 23.0682 89.7568 23.2789 89.6702L23.2367 89.627C23.0893 89.9083 22.8575 89.9516 22.5837 89.9083L22.6258 89.9516Z" fill="#F8275A"/>
<path d="M22.1413 90.6008C22.0781 90.6225 22.0149 90.6441 21.9517 90.6658C22.0359 90.6441 22.0991 90.6225 22.1834 90.6008H22.1413Z" fill="#F8275A"/>
<path d="M15.6527 92.8518L15.5684 92.8085L15.6527 92.7869V92.8518Z" fill="#F8275A"/>
<path d="M244.459 96.2932C244.481 96.2066 244.523 96.1417 244.565 96.0551C244.565 96.0335 244.649 96.0768 244.691 96.0768C244.607 96.1417 244.523 96.2066 244.438 96.2499L244.459 96.2932Z" fill="#F8275A"/>
<path d="M244.438 96.2715C244.207 96.3581 243.975 96.4663 243.764 96.5529L243.785 96.5745C244.017 96.4879 244.249 96.3797 244.459 96.2931L244.438 96.2715Z" fill="#F8275A"/>
<path d="M183.387 11.9258C183.366 11.9042 183.324 11.9042 183.302 11.8826C183.345 11.8609 183.387 11.8393 183.429 11.8176C183.408 11.8393 183.387 11.8826 183.387 11.9258Z" fill="#F8275A"/>
<path d="M44.5142 157.004C44.4721 157.069 44.451 157.177 44.3878 157.199C44.3457 157.22 44.2614 157.155 44.1982 157.112C44.2404 157.09 44.2614 157.047 44.3036 157.026C44.3878 157.004 44.4721 157.026 44.5564 157.004H44.5142Z" fill="#F8275A"/>
<path d="M129.034 23.5268C129.076 23.4186 129.14 23.3104 129.182 23.2021C129.224 23.3104 129.266 23.4186 129.308 23.5052L129.329 23.4835C129.224 23.4835 129.119 23.4835 128.992 23.4835L129.034 23.5268Z" fill="#F8275A"/>
<path d="M35.0973 195.14C35.0763 195.14 35.0552 195.162 35.0131 195.162C35.0341 195.119 35.0552 195.076 35.0552 195.032C35.0763 195.076 35.0973 195.097 35.0973 195.14Z" fill="#F8275A"/>
<path d="M115.615 29.1542C115.678 29.1109 115.741 29.046 115.825 29.0027C115.846 29.0027 115.889 29.046 115.91 29.046C115.804 29.0676 115.699 29.0893 115.573 29.1109L115.615 29.1542Z" fill="#F8275A"/>
<path d="M103.733 35.7772C103.775 35.7122 103.817 35.6473 103.859 35.604C103.817 35.6473 103.754 35.7122 103.712 35.7555L103.733 35.7772Z" fill="#F8275A"/>
<path d="M100.51 37.8766C100.426 37.855 100.362 37.8117 100.278 37.79H100.299C100.32 37.8333 100.32 37.8983 100.362 37.9199C100.383 37.9415 100.447 37.9199 100.489 37.8983L100.51 37.8766Z" fill="#F8275A"/>
<path d="M102.448 212.823C102.49 212.802 102.511 212.802 102.553 212.78C102.553 212.823 102.574 212.867 102.574 212.932C102.532 212.932 102.49 212.932 102.469 212.91C102.448 212.888 102.448 212.845 102.448 212.823Z" fill="#F8275A"/>
<path d="M207.93 52.2264C207.993 52.1831 208.056 52.1615 208.119 52.1182C208.077 52.1398 208.035 52.1398 207.993 52.1615C207.951 52.1831 207.909 52.1831 207.887 52.2047L207.93 52.2264Z" fill="#F8275A"/>
<path d="M206.834 54.6939C206.918 54.4991 207.003 54.3043 207.087 54.1095L207.066 54.0879C206.961 54.2827 206.876 54.4775 206.771 54.6723L206.834 54.6939Z" fill="#F8275A"/>
<path d="M193.246 0.0865751L193.225 0H193.309L193.246 0.0865751Z" fill="#F8275A"/>
<path d="M180.859 5.60627L180.838 5.54077V5.64994L180.859 5.60627Z" fill="#F8275A"/>
<path d="M167.755 18.7434L167.797 18.6785L167.713 18.7218L167.755 18.7434Z" fill="#F8275A"/>
<path d="M142.96 19.3062L143.023 19.2629L142.917 19.3062H142.96Z" fill="#F8275A"/>
<path d="M148.268 19.6743C148.374 19.5444 148.479 19.4362 148.584 19.3063L148.521 19.2847C148.416 19.3929 148.332 19.5011 148.226 19.6093L148.268 19.6743Z" fill="#F8275A"/>
<path d="M119.407 26.492L119.47 26.4487L119.407 26.492Z" fill="#F8275A"/>
<path d="M119.407 26.4919C119.365 26.4919 119.344 26.4919 119.301 26.4919C119.344 26.5352 119.365 26.5785 119.407 26.6002C119.407 26.5569 119.407 26.5352 119.407 26.4919Z" fill="#F8275A"/>
<path d="M117.089 28.2885L117.153 28.2019L117.089 28.2885Z" fill="#F8275A"/>
<path d="M117.089 28.2883C117.047 28.31 117.026 28.3316 116.984 28.3533C117.026 28.3316 117.047 28.31 117.089 28.2883Z" fill="#F8275A"/>
<path d="M115.594 29.1108C115.488 29.2407 115.383 29.3489 115.257 29.4788L115.299 29.5221C115.404 29.3922 115.509 29.284 115.636 29.1541L115.594 29.1108Z" fill="#F8275A"/>
<path d="M113.34 30.9938L113.382 30.9072L113.318 30.9722L113.34 30.9938Z" fill="#F8275A"/>
<path d="M113.002 31.2969C113.108 31.2103 113.234 31.1021 113.34 31.0155L113.318 30.9939C113.213 31.0805 113.108 31.167 113.002 31.2969Z" fill="#F8275A"/>
<path d="M113.002 31.2754C112.96 31.297 112.939 31.3187 112.897 31.3403C112.939 31.3187 112.96 31.297 113.002 31.2754Z" fill="#F8275A"/>
<path d="M112.16 31.8812C112.181 31.8595 112.202 31.8595 112.223 31.8379C112.181 31.8379 112.16 31.8379 112.118 31.8379L112.16 31.8812Z" fill="#F8275A"/>
<path d="M111.844 32.2708C111.949 32.1409 112.054 32.011 112.181 31.8812L112.16 31.8379C112.054 31.9678 111.949 32.0976 111.844 32.2275C111.802 32.2275 111.844 32.2708 111.844 32.2708Z" fill="#F8275A"/>
<path d="M107.251 32.9201L107.335 32.8984L107.314 32.9634L107.251 32.9201Z" fill="#F8275A"/>
<path d="M106.556 35.1494C106.535 35.2143 106.514 35.3009 106.493 35.3659C106.282 35.1711 106.514 35.2143 106.598 35.1711L106.556 35.1494Z" fill="#F8275A"/>
<path d="M103.691 35.7556L103.628 35.8422L103.733 35.7773L103.691 35.7556Z" fill="#F8275A"/>
<path d="M102.216 36.9676L102.279 36.9243L102.216 36.9676Z" fill="#F8275A"/>
<path d="M102.216 36.9677C102.174 36.9677 102.153 36.9677 102.111 36.946C102.153 36.9893 102.174 37.0326 102.216 37.0543C102.216 37.0326 102.216 37.011 102.216 36.9677Z" fill="#F8275A"/>
<path d="M89.6815 45.3221C89.8079 45.3221 89.9343 45.3221 90.0396 45.3005L90.0817 45.2788C89.9343 45.2788 89.7868 45.2788 89.6393 45.2788L89.6815 45.3221Z" fill="#F8275A"/>
<path d="M89.6393 45.3005V45.3871L89.6815 45.3222L89.6393 45.3005Z" fill="#F8275A"/>
<path d="M200.978 47.7463C200.872 47.8545 200.767 47.9627 200.683 48.0493L200.704 48.0709C200.704 47.9627 200.704 47.8328 200.704 47.7246L200.661 47.7679C200.767 47.7679 200.893 47.7679 200.999 47.7679L200.978 47.7463Z" fill="#F8275A"/>
<path d="M207.761 52.2482C207.74 52.2266 207.719 52.2049 207.698 52.1616C207.719 52.1833 207.719 52.2049 207.74 52.2265L207.761 52.2482Z" fill="#F8275A"/>
<path d="M76.283 53.72C76.2409 53.72 76.2198 53.72 76.1777 53.72C76.2198 53.7633 76.2619 53.8065 76.283 53.8282C76.283 53.8065 76.283 53.7633 76.283 53.72Z" fill="#F8275A"/>
<path d="M207.087 54.0877L207.129 53.9795L207.087 54.0661V54.0877Z" fill="#F8275A"/>
<path d="M63.4322 54.6721C63.4322 54.6944 63.4542 54.6944 63.4542 54.7166L63.4322 54.6721Z" fill="#F8275A"/>
<path d="M205.086 63.6543C205.107 63.611 205.107 63.5677 205.128 63.5244C205.107 63.5677 205.086 63.5893 205.064 63.6326L205.086 63.6543Z" fill="#F8275A"/>
<path d="M33.1592 78.2639C33.1171 78.2639 33.096 78.2639 33.0539 78.2639C33.096 78.3072 33.1171 78.3288 33.1592 78.3721C33.1592 78.3505 33.1592 78.3072 33.1592 78.2639Z" fill="#F8275A"/>
<path d="M226.932 85.5578C227.037 85.4279 227.164 85.3197 227.269 85.1899L227.248 85.1682C227.143 85.2981 227.016 85.4063 226.911 85.5362C226.911 85.5145 226.932 85.5578 226.932 85.5578Z" fill="#F8275A"/>
<path d="M21.1727 139.256L21.1511 139.365L21.1727 139.3V139.256Z" fill="#F8275A"/>
<path d="M28.2085 149.775C28.1032 149.883 27.9979 149.97 27.8925 150.078L27.9347 150.121C28.04 150.013 28.1243 149.926 28.2296 149.818L28.2085 149.775Z" fill="#F8275A"/>
<path d="M27.8925 150.078C27.7871 150.164 27.6818 150.251 27.5765 150.338V150.381C27.7029 150.294 27.8082 150.208 27.9346 150.121L27.8925 150.078Z" fill="#F8275A"/>
<path d="M27.5976 150.338L27.5554 150.468L27.5765 150.381L27.5976 150.338Z" fill="#F8275A"/>
<path d="M9.56434 166.614C9.60647 166.549 9.62754 166.484 9.66967 166.397C9.83821 166.614 9.64861 166.571 9.54327 166.592L9.56434 166.614Z" fill="#F8275A"/>
<path d="M9.26941 166.874C9.37474 166.787 9.45901 166.701 9.56434 166.614L9.54328 166.592C9.45901 166.679 9.35368 166.765 9.26941 166.852V166.874Z" fill="#F8275A"/>
<path d="M9.26943 166.852L9.22729 166.938L9.26943 166.873V166.852Z" fill="#F8275A"/>
<path d="M169.82 203.69C169.714 203.798 169.588 203.928 169.483 204.036L169.525 204.058C169.525 203.928 169.525 203.798 169.504 203.69L169.483 203.733C169.609 203.733 169.714 203.733 169.841 203.733L169.82 203.69Z" fill="#F8275A"/>
<path d="M75.6931 222.498C75.6721 222.52 75.651 222.541 75.6089 222.563C75.6299 222.563 75.651 222.541 75.6721 222.541L75.6931 222.498Z" fill="#F8275A"/>
<path d="M63.4744 54.7154L63.5165 54.6072L63.4322 54.6721L63.4744 54.7154Z" fill="#F8275A"/>
<path d="M147.91 21.9035C147.889 21.8819 147.847 21.8169 147.847 21.8169C147.91 21.752 147.973 21.6871 148.016 21.6438C148.058 21.6871 148.079 21.752 148.121 21.7953C148.058 21.8386 147.973 21.8819 147.91 21.9035Z" fill="#F8275A"/>
</svg>
