<svg width="70" height="70" viewBox="0 0 70 70" fill="none" xmlns="http://www.w3.org/2000/svg">
<path d="M63.2 6H56.7V4.1C56.7 1.8 54.9 0 52.6 0C50.3 0 48.5 1.8 48.5 4.1V6H25.5V4.1C25.5 1.8 23.7 0 21.4 0C19.1 0 17.3 1.8 17.3 4.1V6.1C17.2 6 17 6 16.9 6H11.5C7.7 6 4.7 9.1 4.7 12.8V36.1C4.7 36.9 5.3 37.5 6.1 37.5C6.9 37.5 7.5 36.9 7.5 36.1V20.1H56.8C57.6 20.1 58.2 19.5 58.2 18.7C58.2 17.9 57.6 17.3 56.8 17.3H7.4V12.8C7.4 10.5 9.2 8.7 11.5 8.7H16.9C17 8.7 17.1 8.7 17.3 8.6V10.4C17.3 12.7 19.1 14.5 21.4 14.5C23.7 14.5 25.5 12.7 25.5 10.4V8.8H48.5V10.5C48.5 12.8 50.3 14.6 52.6 14.6C54.9 14.6 56.7 12.8 56.7 10.5V8.8H63.2C65.5 8.8 67.3 10.6 67.3 12.9V64.9C67.3 66.3 66.2 67.4 64.8 67.4C63.4 67.4 62.3 66.3 62.3 64.9V61.4C62.3 60.6 61.7 60 60.9 60H45.1C44.3 60 43.7 60.6 43.7 61.4C43.7 62.2 44.3 62.8 45.1 62.8H59.6V65C59.6 65.9 59.8 66.7 60.2 67.5H5.2C3.8 67.5 2.7 66.4 2.7 65V62.8H33.3C34.1 62.8 34.7 62.2 34.7 61.4C34.7 60.6 34.1 60 33.3 60H19.7C22.1 57.9 23.6 54.9 23.6 51.5C23.6 45.3 18.6 40.3 12.4 40.3C6.2 40.3 1.2 45.3 1.2 51.5C1.2 54.9 2.7 57.9 5.1 60H1.4C0.6 60 0 60.6 0 61.4V64.9C0 67.7 2.3 70 5.2 70H64.8C67.7 70 70 67.7 70 64.8V12.8C70 9.1 66.9 6 63.2 6ZM22.7 10.5C22.7 11.3 22.1 11.9 21.3 11.9C20.5 11.9 19.9 11.3 19.9 10.5V4.1C19.9 3.3 20.5 2.7 21.3 2.7C22.1 2.7 22.7 3.3 22.7 4.1V10.5ZM53.9 10.5C53.9 11.3 53.3 11.9 52.5 11.9C51.7 11.9 51.1 11.3 51.1 10.5V4.1C51.1 3.3 51.7 2.7 52.5 2.7C53.3 2.7 53.9 3.3 53.9 4.1V10.5ZM3.9 51.4C3.9 46.7 7.7 42.9 12.4 42.9C17.1 42.9 20.9 46.7 20.9 51.4C20.9 56.1 17.1 59.9 12.4 59.9C7.7 59.9 3.9 56.1 3.9 51.4Z" fill="#441401"/>
<path d="M64 17.8004C63.7 17.5004 63.4 17.4004 63 17.4004C62.6 17.4004 62.3 17.5004 62 17.8004C61.7 18.1004 61.6 18.4004 61.6 18.8004C61.6 19.2004 61.7 19.5004 62 19.8004C62.3 20.1004 62.6 20.2004 63 20.2004C63.4 20.2004 63.7 20.1004 64 19.8004C64.3 19.5004 64.4 19.2004 64.4 18.8004C64.4 18.4004 64.3 18.0004 64 17.8004Z" fill="#441401"/>
<path d="M40.8 60.3004C40.5 60.0004 40.2 59.9004 39.8 59.9004C39.4 59.9004 39.1 60.0004 38.8 60.3004C38.5 60.6004 38.4 60.9004 38.4 61.3004C38.4 61.7004 38.5 62.0004 38.8 62.3004C39.1 62.6004 39.4 62.7004 39.8 62.7004C40.2 62.7004 40.5 62.6004 40.8 62.3004C41.1 62.0004 41.2 61.7004 41.2 61.3004C41.2 60.9004 41.1 60.6004 40.8 60.3004Z" fill="#441401"/>
<path d="M30.9 41.5996C27.9999 41.5996 25.7 43.8996 25.7 46.7996C25.7 49.6996 27.9999 51.9996 30.9 51.9996C33.7999 51.9996 36.0999 49.6996 36.0999 46.7996C36.0999 43.8996 33.7999 41.5996 30.9 41.5996ZM30.9 49.1996C29.4999 49.1996 28.4 48.0996 28.4 46.6996C28.4 45.2996 29.4999 44.1996 30.9 44.1996C32.3 44.1996 33.4 45.2996 33.4 46.6996C33.4 48.0996 32.3 49.1996 30.9 49.1996Z" fill="#441401"/>
<path d="M43.7 41.5996C40.8 41.5996 38.5 43.8996 38.5 46.7996C38.5 49.6996 40.8 51.9996 43.7 51.9996C46.6 51.9996 48.9 49.6996 48.9 46.7996C48.9 43.8996 46.6 41.5996 43.7 41.5996ZM43.7 49.1996C42.3 49.1996 41.2 48.0996 41.2 46.6996C41.2 45.2996 42.3 44.1996 43.7 44.1996C45.1 44.1996 46.2 45.2996 46.2 46.6996C46.2 48.0996 45 49.1996 43.7 49.1996Z" fill="#441401"/>
<path d="M56.5 41.5996C53.6 41.5996 51.3 43.8996 51.3 46.7996C51.3 49.6996 53.6 51.9996 56.5 51.9996C59.4 51.9996 61.7001 49.6996 61.7001 46.7996C61.7001 43.8996 59.3 41.5996 56.5 41.5996ZM56.5 49.1996C55.1 49.1996 54 48.0996 54 46.6996C54 45.2996 55.1 44.1996 56.5 44.1996C57.9 44.1996 59 45.2996 59 46.6996C59 48.0996 57.8 49.1996 56.5 49.1996Z" fill="#441401"/>
<path d="M18.2 27.2998C15.3 27.2998 13 29.5998 13 32.4998C13 35.3998 15.3 37.6998 18.2 37.6998C21.1 37.6998 23.4 35.3998 23.4 32.4998C23.4 29.6998 21 27.2998 18.2 27.2998ZM18.2 34.9998C16.8 34.9998 15.7 33.8998 15.7 32.4998C15.7 31.0998 16.8 29.9998 18.2 29.9998C19.6 29.9998 20.7 31.0998 20.7 32.4998C20.6 33.8998 19.5 34.9998 18.2 34.9998Z" fill="#441401"/>
<path d="M43.7 27.2998C40.8 27.2998 38.5 29.5998 38.5 32.4998C38.5 35.3998 40.8 37.6998 43.7 37.6998C46.6 37.6998 48.9 35.3998 48.9 32.4998C48.9 29.6998 46.6 27.2998 43.7 27.2998ZM43.7 34.9998C42.3 34.9998 41.2 33.8998 41.2 32.4998C41.2 31.0998 42.3 29.9998 43.7 29.9998C45.1 29.9998 46.2 31.0998 46.2 32.4998C46.2 33.8998 45 34.9998 43.7 34.9998Z" fill="#441401"/>
<path d="M56.5 27.2998C53.6 27.2998 51.3 29.5998 51.3 32.4998C51.3 35.3998 53.6 37.6998 56.5 37.6998C59.4 37.6998 61.7001 35.3998 61.7001 32.4998C61.6 29.6998 59.3 27.2998 56.5 27.2998ZM56.5 34.9998C55.1 34.9998 54 33.8998 54 32.4998C54 31.0998 55.1 29.9998 56.5 29.9998C57.9 29.9998 59 31.0998 59 32.4998C58.9 33.8998 57.8 34.9998 56.5 34.9998Z" fill="#441401"/>
<path d="M30.9 27.2998C27.9999 27.2998 25.7 29.5998 25.7 32.4998C25.7 35.3998 27.9999 37.6998 30.9 37.6998C33.7999 37.6998 36.0999 35.3998 36.0999 32.4998C36.0999 29.6998 33.7999 27.2998 30.9 27.2998ZM30.9 34.9998C29.4999 34.9998 28.4 33.8998 28.4 32.4998C28.4 31.0998 29.4999 29.9998 30.9 29.9998C32.3 29.9998 33.4 31.0998 33.4 32.4998C33.4 33.8998 32.3 34.9998 30.9 34.9998Z" fill="#441401"/>
<path d="M17.2 48.0996C16.7 47.5996 15.8 47.5996 15.3 48.0996L10.8 52.5996L9.30002 50.9996C8.80002 50.4996 7.90002 50.4996 7.40002 50.9996C6.90002 51.4996 6.90002 52.3996 7.40002 52.8996L9.90002 55.3996C10.2 55.6996 10.5 55.7996 10.9 55.7996C11.3 55.7996 11.6 55.6996 11.9 55.3996L17.3 49.9996C17.8 49.4996 17.8 48.5996 17.2 48.0996Z" fill="#FFB800"/>
</svg>
