<svg width="70" height="70" viewBox="0 0 70 70" fill="none" xmlns="http://www.w3.org/2000/svg">
<path d="M61.3 61.8H37.2C36.4 61.8 35.8 62.4 35.8 63.2C35.8 64 36.4 64.6 37.2 64.6H59.7C59.1 66.2 57.6 67.3 55.8 67.3H12.3C12.9 66.5 13.3 65.6 13.5 64.6H25.9C26.7 64.6 27.3 64 27.3 63.2C27.3 62.4 26.7 61.8 25.9 61.8H12.3C11.5 61.8 10.9 62.4 10.9 63.2C10.9 65.5 9.1 67.3 6.8 67.3C4.5 67.3 2.7 65.5 2.7 63.2V2.7H52.5V19.6C52.5 20.4 53.1 21 53.9 21C54.7 21 55.3 20.4 55.3 19.6V1.4C55.3 0.6 54.7 0 53.9 0H1.4C0.6 0 0 0.6 0 1.4V63.2C0 66.9 3.1 70 6.8 70H55.7C59.5 70 62.5 66.9 62.5 63.2C62.6 62.4 62 61.8 61.3 61.8Z" fill="#441401"/>
<path d="M32.2001 62.1998C31.9001 61.8998 31.6001 61.7998 31.2001 61.7998C30.8001 61.7998 30.5001 61.8998 30.2001 62.1998C29.9001 62.4998 29.8 62.7998 29.8 63.1998C29.8 63.5998 29.9001 63.8998 30.2001 64.1998C30.5001 64.4998 30.8001 64.5998 31.2001 64.5998C31.6001 64.5998 31.9001 64.4998 32.2001 64.1998C32.5001 63.8998 32.6 63.5998 32.6 63.1998C32.6 62.7998 32.5001 62.4998 32.2001 62.1998Z" fill="#441401"/>
<path d="M38.9 38.2002H16.3C15.5 38.2002 14.9 38.8002 14.9 39.6002C14.9 40.4002 15.5 41.0002 16.3 41.0002H38.9C39.7 41.0002 40.3 40.4002 40.3 39.6002C40.3 38.8002 39.7 38.2002 38.9 38.2002Z" fill="#441401"/>
<path d="M38.9 44.7998H16.3C15.5 44.7998 14.9 45.3998 14.9 46.1998C14.9 46.9998 15.5 47.5998 16.3 47.5998H38.9C39.7 47.5998 40.3 46.9998 40.3 46.1998C40.3 45.3998 39.7 44.7998 38.9 44.7998Z" fill="#441401"/>
<path d="M39.9 51.6998C39.6 51.3998 39.3 51.2998 38.9 51.2998C38.5 51.2998 38.2 51.3998 37.9 51.6998C37.6 51.9998 37.5 52.2998 37.5 52.6998C37.5 53.0998 37.6 53.3998 37.9 53.6998C38.2 53.9998 38.5 54.0998 38.9 54.0998C39.3 54.0998 39.6 53.9998 39.9 53.6998C40.2 53.3998 40.3 53.0998 40.3 52.6998C40.3 52.3998 40.1 51.9998 39.9 51.6998Z" fill="#441401"/>
<path d="M32.8 51.2998H16.3C15.5 51.2998 14.9 51.8998 14.9 52.6998C14.9 53.4998 15.5 54.0998 16.3 54.0998H32.8C33.6 54.0998 34.2 53.4998 34.2 52.6998C34.2 51.9998 33.6 51.2998 32.8 51.2998Z" fill="#441401"/>
<path d="M38.7 21.9C38.8 21.8 38.8 21.7 38.9 21.7C40.8 19 41.3 16.6 40.2 14.7C39.1 12.8 36.7 12 33.5 12.4C33.4 12.4 33.3 12.4 33.2 12.4C31.9 9.3 29.9 7.5 27.7 7.5C25.4 7.5 23.5 9.4 22.2 12.4C22.1 12.4 22 12.4 21.9 12.4C18.6 12.1 16.2 12.9 15.2 14.7C14.1 16.7 14.7 19.3 16.7 21.9C14.7 24.6 14.1 27.2 15.2 29.1C16.1 30.7 18.1 31.5 20.6 31.5C21.1 31.5 21.7 31.5 22.2 31.4C23.5 34.5 25.5 36.3 27.7 36.3C30 36.3 31.9 34.4 33.2 31.4C33.8 31.5 34.3 31.5 34.8 31.5C37.3 31.5 39.3 30.7 40.2 29.1C41.3 27.2 40.8 24.8 38.9 22.1C38.8 22 38.7 22 38.7 21.9ZM17.4 16C17.8 15.3 18.9 14.9 20.4 14.9C20.6 14.9 20.9 14.9 21.2 14.9C21 15.8 20.8 16.8 20.6 17.8C19.8 18.4 19 19.1 18.4 19.7C17.3 18.1 17 16.8 17.4 16ZM20.4 22.1C20.3 22 20.3 22 20.2 21.9C20.3 21.8 20.3 21.8 20.4 21.7C20.4 21.8 20.4 21.8 20.4 21.9C20.4 22 20.4 22 20.4 22.1ZM17.4 27.8C17 27 17.3 25.7 18.4 24C19.1 24.7 19.8 25.3 20.6 25.9C20.7 26.9 20.9 27.9 21.2 28.8C19.2 28.9 17.9 28.5 17.4 27.8ZM31.3 15.5C31.3 15.6 31.3 15.7 31.4 15.8C31.3 15.8 31.3 15.7 31.2 15.7C31.1 15.7 31.1 15.6 31 15.6C31.2 15.5 31.2 15.5 31.3 15.5ZM27.6 10.1C28.5 10.1 29.5 11.1 30.4 12.9C29.5 13.2 28.6 13.5 27.6 13.9C26.7 13.5 25.7 13.2 24.8 12.9C25.7 11.1 26.7 10.1 27.6 10.1ZM23.9 15.5C24 15.5 24.1 15.5 24.2 15.6C24.1 15.6 24.1 15.7 24 15.7C23.9 15.7 23.9 15.8 23.8 15.8C23.9 15.6 23.9 15.5 23.9 15.5ZM23.9 28.3C23.9 28.2 23.9 28.1 23.8 28C23.9 28 23.9 28.1 24 28.1C24.1 28.1 24.1 28.2 24.2 28.2C24.1 28.3 24 28.3 23.9 28.3ZM27.6 33.6C26.7 33.6 25.7 32.6 24.8 30.9C25.7 30.7 26.6 30.3 27.6 29.9C28.5 30.3 29.5 30.6 30.4 30.9C29.5 32.7 28.5 33.6 27.6 33.6ZM31.3 28.3C31.2 28.3 31.1 28.3 31 28.2C31.1 28.2 31.1 28.1 31.2 28.1C31.3 28.1 31.3 28 31.4 28C31.4 28.1 31.4 28.2 31.3 28.3ZM32 24.4C31.3 24.9 30.6 25.3 29.9 25.8C29.1 26.2 28.4 26.6 27.6 27C26.9 26.7 26.1 26.3 25.3 25.8C24.5 25.4 23.8 24.9 23.2 24.4C23.1 23.6 23.1 22.8 23.1 21.9C23.1 21 23.1 20.2 23.2 19.4C23.9 18.9 24.6 18.5 25.3 18C26 17.6 26.8 17.2 27.6 16.8C28.4 17.1 29.1 17.5 29.9 18C30.6 18.4 31.4 18.9 32 19.4C32.1 20.2 32.1 21 32.1 21.9C32.1 22.8 32.1 23.6 32 24.4ZM37.8 27.8C37.4 28.6 36 29 34 28.8C34.2 27.9 34.4 26.9 34.6 25.9C35.4 25.3 36.1 24.6 36.8 24C37.9 25.6 38.3 27 37.8 27.8ZM34.9 21.7C35 21.8 35 21.8 35.1 21.9C35 22 35 22 34.9 22.1C34.9 22 34.9 22 34.9 21.9C34.9 21.8 34.9 21.8 34.9 21.7ZM36.8 19.8C36.1 19.1 35.4 18.5 34.6 17.9C34.5 16.9 34.3 15.9 34 15C34.3 15 34.5 15 34.8 15C36.3 15 37.4 15.4 37.8 16.1C38.3 16.8 37.9 18.2 36.8 19.8Z" fill="#441401"/>
<path d="M57.9001 23.0996C51.2001 23.0996 45.8 28.4996 45.8 35.1996C45.8 39.0996 47.6 42.5996 50.5 44.7996V57.4996C50.5 58.0996 50.8 58.4996 51.3 58.7996C51.8 58.9996 52.4 58.8996 52.8 58.4996L57.9001 53.4996L63 58.4996C63.3 58.7996 63.6 58.8996 64 58.8996C64.2001 58.8996 64.4 58.8996 64.5 58.7996C65 58.5996 65.3001 58.0996 65.3001 57.4996V44.7996C68.2001 42.5996 70 39.0996 70 35.1996C70 28.4996 64.6001 23.0996 57.9001 23.0996ZM62.5 54.0996L58.8 50.4996C58.3 49.9996 57.4001 49.9996 56.9001 50.4996L53.2001 54.0996V46.2996C54.6 46.8996 56.2 47.1996 57.8 47.1996C59.4 47.1996 61.0001 46.8996 62.4001 46.2996V54.0996H62.5ZM57.9001 44.4996C52.7001 44.4996 48.5 40.2996 48.5 35.0996C48.5 29.8996 52.7001 25.6996 57.9001 25.6996C63.1001 25.6996 67.3001 29.8996 67.3001 35.0996C67.3001 40.2996 63.1001 44.4996 57.9001 44.4996Z" fill="#FFB800"/>
<path d="M65 33.5002C64.8 33.0002 64.4 32.6002 63.9 32.6002L60.6 32.0002L59.1 29.0002C58.9 28.5002 58.4 28.2002 57.9 28.2002C57.4 28.2002 56.9 28.5002 56.7 29.0002L55.2 32.0002L51.9 32.5002C51.4 32.6002 51 32.9002 50.8 33.4002C50.6 33.9002 50.8 34.4002 51.1 34.8002L53.5 37.1002L53 40.4002C52.9 40.9002 53.1 41.4002 53.5 41.7002C53.8 42.0002 54 42.0002 54.3 42.0002C54.5 42.0002 54.7 41.9002 54.9 41.8002L57.8 40.3002L60.7 41.8002C61.2 42.0002 61.7 42.0002 62.1 41.7002C62.5 41.4002 62.7 40.9002 62.6 40.4002L62 37.1002L64.4 34.8002C65 34.5002 65.1 34.0002 65 33.5002ZM59.8 35.7002C59.5 36.0002 59.3 36.5002 59.4 36.9002L59.6 38.1002L58.5 37.5002C58.1 37.3002 57.6 37.3002 57.2 37.5002L56.1 38.1002L56.3 36.9002C56.4 36.5002 56.2 36.0002 55.9 35.7002L55 34.8002L56.3 34.6002C56.7 34.5002 57.1 34.3002 57.3 33.9002L57.9 32.8002L58.5 33.9002C58.7 34.3002 59.1 34.6002 59.5 34.6002L60.8 34.8002L59.8 35.7002Z" fill="#FFB800"/>
</svg>
